<?xml version="1.0" standalone="no"?><!DOCTYPE svg PUBLIC "-//W3C//DTD SVG 1.1//EN" "http://www.w3.org/Graphics/SVG/1.1/DTD/svg11.dtd"><svg t="1705989510211" class="icon" viewBox="0 0 1024 1024" version="1.1" xmlns="http://www.w3.org/2000/svg" p-id="6466" xmlns:xlink="http://www.w3.org/1999/xlink" width="48" height="48"><path d="M512 0c282.752 0 512 229.248 512 512s-229.248 512-512 512S0 794.752 0 512 229.248 0 512 0z m0 42.666667C252.8 42.666667 42.666667 252.8 42.666667 512s210.133333 469.333333 469.333333 469.333333 469.333333-210.133333 469.333333-469.333333S771.2 42.666667 512 42.666667z m213.034667 209.152l0.298666 3.413333v398.762667c0 3.413333-0.853333 6.656-2.432 9.472-10.666667 37.632-54.058667 64.213333-104.234666 64.213333-57.813333 0-106.666667-35.285333-106.666667-82.176 0-46.848 48.853333-82.176 106.666667-82.176 23.808 0 46.08 5.973333 64.042666 16.298667L682.666667 423.466667l-256 92.501333v191.146667c0 44.885333-44.714667 79.104-99.2 82.005333L320 789.333333c-57.813333 0-106.666667-35.328-106.666667-82.176 0-46.890667 48.853333-82.176 106.666667-82.176 23.808 0 46.08 5.973333 64.042667 16.298667L384 502.186667a19.626667 19.626667 0 0 1 0-0.853334V348.202667a20.48 20.48 0 0 1 11.178667-18.048l3.584-1.493334 298.666666-93.013333a21.376 21.376 0 0 1 27.605334 16.128zM320 666.026667c-36.48 0-64 19.882667-64 41.088 0 21.205333 27.52 41.088 64 41.088S384 728.32 384 707.157333c0-21.205333-27.52-41.088-64-41.088z m298.666667-61.653334c-36.48 0-64 19.925333-64 41.088 0 21.205333 27.52 41.088 64 41.088s64-19.882667 64-41.088c0-21.162667-27.52-41.088-64-41.088zM682.666667 283.434667l-256 79.786666v108.8l256-92.416V283.434667z" fill="#FFFFFF" p-id="6467"></path></svg>