<?xml version="1.0" standalone="no"?><!DOCTYPE svg PUBLIC "-//W3C//DTD SVG 1.1//EN" "http://www.w3.org/Graphics/SVG/1.1/DTD/svg11.dtd"><svg t="1705989498048" class="icon" viewBox="0 0 1024 1024" version="1.1" xmlns="http://www.w3.org/2000/svg" p-id="2295" xmlns:xlink="http://www.w3.org/1999/xlink" width="48" height="48"><path d="M511.999787 0c282.751882 0 511.999787 229.247904 511.999786 511.999787 0 133.717278-51.242645 255.445227-135.167943 346.623855l0.938666 0.938667-30.207987 30.207987-0.938667-0.938666A510.165121 510.165121 0 0 1 511.999787 1023.999573C229.247904 1023.999573 0 794.751669 0 511.999787S229.247904 0 511.999787 0zM42.666649 511.999787c0 259.199892 210.133246 469.333138 469.333138 469.333137a467.626472 467.626472 0 0 0 316.458534-122.751948l-146.687938-146.645273a129.877279 129.877279 0 0 1-63.103974 15.78666c-57.813309 0-106.666622-35.327985-106.666622-82.218632 0-26.410656 15.53066-49.15198 39.423983-63.957307l-81.322633-81.279966-43.434648 15.701327v191.146587c0 44.885315-44.714648 79.103967-99.199959 82.005299L319.999867 789.333004c-57.813309 0-106.666622-35.327985-106.666623-82.175965 0-46.890647 48.853313-82.175966 106.666623-82.175966 23.80799 0 46.079981 5.973331 64.04264 16.29866L383.99984 502.186457a19.626658 19.626658 0 0 1 0-0.853333V414.122494L165.418598 195.541252A467.626472 467.626472 0 0 0 42.666649 511.999787zM511.999787 42.666649a467.626472 467.626472 0 0 0-316.458535 122.751949L383.99984 353.834519v-5.546664a20.479991 20.479991 0 0 1 11.178662-18.090659l3.583999-1.493333 298.666542-93.013295a21.375991 21.375991 0 0 1 27.605322 16.127994l0.298666 3.413332v398.7625c0 3.413332-0.853333 6.655997-2.431999 9.471996a70.143971 70.143971 0 0 1-9.301329 19.967992l144.981273 145.023939A467.626472 467.626472 0 0 0 981.332924 511.999787c0-259.199892-210.133246-469.333138-469.333137-469.333138zM319.999867 666.026389c-36.479985 0-63.999973 19.925325-63.999974 41.13065 0 21.205324 27.519989 41.087983 63.999974 41.087983S383.99984 728.319697 383.99984 707.157039c0-21.205324-27.519989-41.087983-63.999973-41.087983z m234.666569-20.479991c0 21.162658 27.519989 41.045316 63.999973 41.045316 11.861328 0 22.783991-2.133332 32.127987-5.674664l-68.906638-68.863972c-16.639993 7.722663-27.221322 20.351992-27.221322 33.450653z m81.621299-39.509317l45.610648 45.653314a25.301323 25.301323 0 0 0 0.767999-6.186664c0-17.578659-19.029325-34.303986-46.378647-39.46665zM682.666382 423.509157l-168.277263 60.714641 81.066633 81.066633c7.50933-1.279999 15.27466-1.962666 23.210657-1.962666 23.80799 0 46.079981 5.973331 64.04264 16.29866L682.666382 423.46649z m-255.999893 33.322653v15.231993l11.178662-4.053331-11.178662-11.178662z m255.999893-173.397261l-255.999893 79.786633v33.279986l55.466643 55.466644L682.666382 379.605175V283.434549z" fill="#FFFFFF" p-id="2296"></path></svg>