<?xml version="1.0" encoding="UTF-8" ?>
<svg version="1.1" width="48" height="48" xmlns="http://www.w3.org/2000/svg" shape-rendering="crispEdges">
<rect x="10" y="2" width="1" height="1" fill="#FFFFFF" opacity="0.478431" />
<rect x="11" y="2" width="1" height="1" fill="#FFFFFF" opacity="0.478431" />
<rect x="12" y="2" width="1" height="1" fill="#FFFFFF" opacity="0.478431" />
<rect x="13" y="2" width="1" height="1" fill="#FFFFFF" opacity="0.478431" />
<rect x="14" y="2" width="1" height="1" fill="#FFFFFF" opacity="0.478431" />
<rect x="15" y="2" width="1" height="1" fill="#FFFFFF" opacity="0.478431" />
<rect x="16" y="2" width="1" height="1" fill="#FFFFFF" opacity="0.478431" />
<rect x="17" y="2" width="1" height="1" fill="#FFFFFF" opacity="0.478431" />
<rect x="18" y="2" width="1" height="1" fill="#FFFFFF" opacity="0.478431" />
<rect x="19" y="2" width="1" height="1" fill="#FFFFFF" opacity="0.478431" />
<rect x="20" y="2" width="1" height="1" fill="#FFFFFF" opacity="0.478431" />
<rect x="21" y="2" width="1" height="1" fill="#FFFFFF" opacity="0.478431" />
<rect x="22" y="2" width="1" height="1" fill="#FFFFFF" opacity="0.478431" />
<rect x="23" y="2" width="1" height="1" fill="#FFFFFF" opacity="0.478431" />
<rect x="24" y="2" width="1" height="1" fill="#FFFFFF" opacity="0.478431" />
<rect x="25" y="2" width="1" height="1" fill="#FFFFFF" opacity="0.478431" />
<rect x="26" y="2" width="1" height="1" fill="#FFFFFF" opacity="0.478431" />
<rect x="27" y="2" width="1" height="1" fill="#FFFFFF" opacity="0.478431" />
<rect x="28" y="2" width="1" height="1" fill="#FFFFFF" opacity="0.478431" />
<rect x="29" y="2" width="1" height="1" fill="#FFFFFF" opacity="0.478431" />
<rect x="30" y="2" width="1" height="1" fill="#FFFFFF" opacity="0.478431" />
<rect x="31" y="2" width="1" height="1" fill="#FFFFFF" opacity="0.478431" />
<rect x="32" y="2" width="1" height="1" fill="#FFFFFF" opacity="0.478431" />
<rect x="33" y="2" width="1" height="1" fill="#FFFFFF" opacity="0.478431" />
<rect x="34" y="2" width="1" height="1" fill="#FFFFFF" opacity="0.478431" />
<rect x="35" y="2" width="1" height="1" fill="#FFFFFF" opacity="0.478431" />
<rect x="36" y="2" width="1" height="1" fill="#FFFFFF" opacity="0.478431" />
<rect x="37" y="2" width="1" height="1" fill="#FFFFFF" opacity="0.478431" />
<rect x="10" y="3" width="1" height="1" fill="#FFFFFF" />
<rect x="11" y="3" width="1" height="1" fill="#FFFFFF" />
<rect x="12" y="3" width="1" height="1" fill="#FFFFFF" />
<rect x="13" y="3" width="1" height="1" fill="#FFFFFF" />
<rect x="14" y="3" width="1" height="1" fill="#FFFFFF" />
<rect x="15" y="3" width="1" height="1" fill="#FFFFFF" />
<rect x="16" y="3" width="1" height="1" fill="#FFFFFF" />
<rect x="17" y="3" width="1" height="1" fill="#FFFFFF" />
<rect x="18" y="3" width="1" height="1" fill="#FFFFFF" />
<rect x="19" y="3" width="1" height="1" fill="#FFFFFF" />
<rect x="20" y="3" width="1" height="1" fill="#FFFFFF" />
<rect x="21" y="3" width="1" height="1" fill="#FFFFFF" />
<rect x="22" y="3" width="1" height="1" fill="#FFFFFF" />
<rect x="23" y="3" width="1" height="1" fill="#FFFFFF" />
<rect x="24" y="3" width="1" height="1" fill="#FFFFFF" />
<rect x="25" y="3" width="1" height="1" fill="#FFFFFF" />
<rect x="26" y="3" width="1" height="1" fill="#FFFFFF" />
<rect x="27" y="3" width="1" height="1" fill="#FFFFFF" />
<rect x="28" y="3" width="1" height="1" fill="#FFFFFF" />
<rect x="29" y="3" width="1" height="1" fill="#FFFFFF" />
<rect x="30" y="3" width="1" height="1" fill="#FFFFFF" />
<rect x="31" y="3" width="1" height="1" fill="#FFFFFF" />
<rect x="32" y="3" width="1" height="1" fill="#FFFFFF" />
<rect x="33" y="3" width="1" height="1" fill="#FFFFFF" />
<rect x="34" y="3" width="1" height="1" fill="#FFFFFF" />
<rect x="35" y="3" width="1" height="1" fill="#FFFFFF" />
<rect x="36" y="3" width="1" height="1" fill="#FFFFFF" />
<rect x="37" y="3" width="1" height="1" fill="#FFFFFF" />
<rect x="10" y="4" width="1" height="1" fill="#FFFFFF" />
<rect x="11" y="4" width="1" height="1" fill="#FFFFFF" />
<rect x="12" y="4" width="1" height="1" fill="#FFFFFF" opacity="0.694118" />
<rect x="13" y="4" width="1" height="1" fill="#FFFFFF" opacity="0.694118" />
<rect x="14" y="4" width="1" height="1" fill="#FFFFFF" opacity="0.694118" />
<rect x="15" y="4" width="1" height="1" fill="#FFFFFF" opacity="0.694118" />
<rect x="16" y="4" width="1" height="1" fill="#FFFFFF" opacity="0.694118" />
<rect x="17" y="4" width="1" height="1" fill="#FFFFFF" opacity="0.694118" />
<rect x="18" y="4" width="1" height="1" fill="#FFFFFF" opacity="0.694118" />
<rect x="19" y="4" width="1" height="1" fill="#FFFFFF" opacity="0.694118" />
<rect x="20" y="4" width="1" height="1" fill="#FFFFFF" opacity="0.694118" />
<rect x="21" y="4" width="1" height="1" fill="#FFFFFF" opacity="0.694118" />
<rect x="22" y="4" width="1" height="1" fill="#FFFFFF" opacity="0.694118" />
<rect x="23" y="4" width="1" height="1" fill="#FFFFFF" opacity="0.694118" />
<rect x="24" y="4" width="1" height="1" fill="#FFFFFF" opacity="0.694118" />
<rect x="25" y="4" width="1" height="1" fill="#FFFFFF" opacity="0.694118" />
<rect x="26" y="4" width="1" height="1" fill="#FFFFFF" opacity="0.694118" />
<rect x="27" y="4" width="1" height="1" fill="#FFFFFF" opacity="0.694118" />
<rect x="28" y="4" width="1" height="1" fill="#FFFFFF" opacity="0.694118" />
<rect x="29" y="4" width="1" height="1" fill="#FFFFFF" opacity="0.694118" />
<rect x="30" y="4" width="1" height="1" fill="#FFFFFF" opacity="0.694118" />
<rect x="31" y="4" width="1" height="1" fill="#FFFFFF" opacity="0.694118" />
<rect x="32" y="4" width="1" height="1" fill="#FFFFFF" opacity="0.694118" />
<rect x="33" y="4" width="1" height="1" fill="#FFFFFF" opacity="0.694118" />
<rect x="34" y="4" width="1" height="1" fill="#FFFFFF" opacity="0.694118" />
<rect x="35" y="4" width="1" height="1" fill="#FFFFFF" opacity="0.694118" />
<rect x="36" y="4" width="1" height="1" fill="#FFFFFF" />
<rect x="37" y="4" width="1" height="1" fill="#FFFFFF" />
<rect x="10" y="5" width="1" height="1" fill="#FFFFFF" />
<rect x="11" y="5" width="1" height="1" fill="#FFFFFF" />
<rect x="36" y="5" width="1" height="1" fill="#FFFFFF" />
<rect x="37" y="5" width="1" height="1" fill="#FFFFFF" />
<rect x="10" y="6" width="1" height="1" fill="#FFFFFF" />
<rect x="11" y="6" width="1" height="1" fill="#FFFFFF" />
<rect x="36" y="6" width="1" height="1" fill="#FFFFFF" />
<rect x="37" y="6" width="1" height="1" fill="#FFFFFF" />
<rect x="10" y="7" width="1" height="1" fill="#FFFFFF" />
<rect x="11" y="7" width="1" height="1" fill="#FFFFFF" />
<rect x="36" y="7" width="1" height="1" fill="#FFFFFF" />
<rect x="37" y="7" width="1" height="1" fill="#FFFFFF" />
<rect x="10" y="8" width="1" height="1" fill="#FFFFFF" />
<rect x="11" y="8" width="1" height="1" fill="#FFFFFF" />
<rect x="36" y="8" width="1" height="1" fill="#FFFFFF" />
<rect x="37" y="8" width="1" height="1" fill="#FFFFFF" />
<rect x="10" y="9" width="1" height="1" fill="#FFFFFF" />
<rect x="11" y="9" width="1" height="1" fill="#FFFFFF" />
<rect x="36" y="9" width="1" height="1" fill="#FFFFFF" />
<rect x="37" y="9" width="1" height="1" fill="#FFFFFF" />
<rect x="10" y="10" width="1" height="1" fill="#FFFFFF" />
<rect x="11" y="10" width="1" height="1" fill="#FFFFFF" />
<rect x="36" y="10" width="1" height="1" fill="#FFFFFF" />
<rect x="37" y="10" width="1" height="1" fill="#FFFFFF" />
<rect x="10" y="11" width="1" height="1" fill="#FFFFFF" />
<rect x="11" y="11" width="1" height="1" fill="#FFFFFF" />
<rect x="36" y="11" width="1" height="1" fill="#FFFFFF" />
<rect x="37" y="11" width="1" height="1" fill="#FFFFFF" />
<rect x="10" y="12" width="1" height="1" fill="#FFFFFF" />
<rect x="11" y="12" width="1" height="1" fill="#FFFFFF" />
<rect x="36" y="12" width="1" height="1" fill="#FFFFFF" />
<rect x="37" y="12" width="1" height="1" fill="#FFFFFF" />
<rect x="10" y="13" width="1" height="1" fill="#FFFFFF" />
<rect x="11" y="13" width="1" height="1" fill="#FFFFFF" />
<rect x="36" y="13" width="1" height="1" fill="#FFFFFF" />
<rect x="37" y="13" width="1" height="1" fill="#FFFFFF" />
<rect x="10" y="14" width="1" height="1" fill="#FFFFFF" />
<rect x="11" y="14" width="1" height="1" fill="#FFFFFF" />
<rect x="36" y="14" width="1" height="1" fill="#FFFFFF" />
<rect x="37" y="14" width="1" height="1" fill="#FFFFFF" />
<rect x="10" y="15" width="1" height="1" fill="#FFFFFF" />
<rect x="11" y="15" width="1" height="1" fill="#FFFFFF" />
<rect x="36" y="15" width="1" height="1" fill="#FFFFFF" />
<rect x="37" y="15" width="1" height="1" fill="#FFFFFF" />
<rect x="10" y="16" width="1" height="1" fill="#FFFFFF" />
<rect x="11" y="16" width="1" height="1" fill="#FFFFFF" />
<rect x="36" y="16" width="1" height="1" fill="#FFFFFF" />
<rect x="37" y="16" width="1" height="1" fill="#FFFFFF" />
<rect x="10" y="17" width="1" height="1" fill="#FFFFFF" />
<rect x="11" y="17" width="1" height="1" fill="#FFFFFF" />
<rect x="36" y="17" width="1" height="1" fill="#FFFFFF" />
<rect x="37" y="17" width="1" height="1" fill="#FFFFFF" />
<rect x="10" y="18" width="1" height="1" fill="#FFFFFF" />
<rect x="11" y="18" width="1" height="1" fill="#FFFFFF" />
<rect x="36" y="18" width="1" height="1" fill="#FFFFFF" />
<rect x="37" y="18" width="1" height="1" fill="#FFFFFF" />
<rect x="10" y="19" width="1" height="1" fill="#FFFFFF" />
<rect x="11" y="19" width="1" height="1" fill="#FFFFFF" />
<rect x="36" y="19" width="1" height="1" fill="#FFFFFF" />
<rect x="37" y="19" width="1" height="1" fill="#FFFFFF" />
<rect x="10" y="20" width="1" height="1" fill="#FFFFFF" />
<rect x="11" y="20" width="1" height="1" fill="#FFFFFF" />
<rect x="36" y="20" width="1" height="1" fill="#FFFFFF" />
<rect x="37" y="20" width="1" height="1" fill="#FFFFFF" />
<rect x="10" y="21" width="1" height="1" fill="#FFFFFF" />
<rect x="11" y="21" width="1" height="1" fill="#FFFFFF" />
<rect x="36" y="21" width="1" height="1" fill="#FFFFFF" />
<rect x="37" y="21" width="1" height="1" fill="#FFFFFF" />
<rect x="10" y="22" width="1" height="1" fill="#FFFFFF" />
<rect x="11" y="22" width="1" height="1" fill="#FFFFFF" />
<rect x="36" y="22" width="1" height="1" fill="#FFFFFF" />
<rect x="37" y="22" width="1" height="1" fill="#FFFFFF" />
<rect x="10" y="23" width="1" height="1" fill="#FFFFFF" />
<rect x="11" y="23" width="1" height="1" fill="#FFFFFF" />
<rect x="36" y="23" width="1" height="1" fill="#FFFFFF" />
<rect x="37" y="23" width="1" height="1" fill="#FFFFFF" />
<rect x="10" y="24" width="1" height="1" fill="#FFFFFF" />
<rect x="11" y="24" width="1" height="1" fill="#FFFFFF" />
<rect x="36" y="24" width="1" height="1" fill="#FFFFFF" />
<rect x="37" y="24" width="1" height="1" fill="#FFFFFF" />
<rect x="10" y="25" width="1" height="1" fill="#FFFFFF" />
<rect x="11" y="25" width="1" height="1" fill="#FFFFFF" />
<rect x="36" y="25" width="1" height="1" fill="#FFFFFF" />
<rect x="37" y="25" width="1" height="1" fill="#FFFFFF" />
<rect x="10" y="26" width="1" height="1" fill="#FFFFFF" />
<rect x="11" y="26" width="1" height="1" fill="#FFFFFF" />
<rect x="36" y="26" width="1" height="1" fill="#FFFFFF" />
<rect x="37" y="26" width="1" height="1" fill="#FFFFFF" />
<rect x="10" y="27" width="1" height="1" fill="#FFFFFF" />
<rect x="11" y="27" width="1" height="1" fill="#FFFFFF" />
<rect x="36" y="27" width="1" height="1" fill="#FFFFFF" />
<rect x="37" y="27" width="1" height="1" fill="#FFFFFF" />
<rect x="10" y="28" width="1" height="1" fill="#FFFFFF" />
<rect x="11" y="28" width="1" height="1" fill="#FFFFFF" />
<rect x="36" y="28" width="1" height="1" fill="#FFFFFF" />
<rect x="37" y="28" width="1" height="1" fill="#FFFFFF" />
<rect x="10" y="29" width="1" height="1" fill="#FFFFFF" />
<rect x="11" y="29" width="1" height="1" fill="#FFFFFF" />
<rect x="36" y="29" width="1" height="1" fill="#FFFFFF" />
<rect x="37" y="29" width="1" height="1" fill="#FFFFFF" />
<rect x="10" y="30" width="1" height="1" fill="#FFFFFF" />
<rect x="11" y="30" width="1" height="1" fill="#FFFFFF" />
<rect x="36" y="30" width="1" height="1" fill="#FFFFFF" />
<rect x="37" y="30" width="1" height="1" fill="#FFFFFF" />
<rect x="10" y="31" width="1" height="1" fill="#FFFFFF" />
<rect x="11" y="31" width="1" height="1" fill="#FFFFFF" />
<rect x="36" y="31" width="1" height="1" fill="#FFFFFF" />
<rect x="37" y="31" width="1" height="1" fill="#FFFFFF" />
<rect x="10" y="32" width="1" height="1" fill="#FFFFFF" />
<rect x="11" y="32" width="1" height="1" fill="#FFFFFF" />
<rect x="36" y="32" width="1" height="1" fill="#FFFFFF" />
<rect x="37" y="32" width="1" height="1" fill="#FFFFFF" />
<rect x="10" y="33" width="1" height="1" fill="#FFFFFF" />
<rect x="11" y="33" width="1" height="1" fill="#FFFFFF" />
<rect x="36" y="33" width="1" height="1" fill="#FFFFFF" />
<rect x="37" y="33" width="1" height="1" fill="#FFFFFF" />
<rect x="10" y="34" width="1" height="1" fill="#FFFFFF" />
<rect x="11" y="34" width="1" height="1" fill="#FFFFFF" />
<rect x="36" y="34" width="1" height="1" fill="#FFFFFF" />
<rect x="37" y="34" width="1" height="1" fill="#FFFFFF" />
<rect x="10" y="35" width="1" height="1" fill="#FFFFFF" />
<rect x="11" y="35" width="1" height="1" fill="#FFFFFF" />
<rect x="36" y="35" width="1" height="1" fill="#FFFFFF" />
<rect x="37" y="35" width="1" height="1" fill="#FFFFFF" />
<rect x="10" y="36" width="1" height="1" fill="#FFFFFF" />
<rect x="11" y="36" width="1" height="1" fill="#FFFFFF" />
<rect x="22" y="36" width="1" height="1" fill="#FFFFFF" opacity="0.490196" />
<rect x="23" y="36" width="1" height="1" fill="#FFFFFF" />
<rect x="24" y="36" width="1" height="1" fill="#FFFFFF" />
<rect x="25" y="36" width="1" height="1" fill="#FFFFFF" opacity="0.490196" />
<rect x="36" y="36" width="1" height="1" fill="#FFFFFF" />
<rect x="37" y="36" width="1" height="1" fill="#FFFFFF" />
<rect x="10" y="37" width="1" height="1" fill="#FFFFFF" />
<rect x="11" y="37" width="1" height="1" fill="#FFFFFF" />
<rect x="22" y="37" width="1" height="1" fill="#FFFFFF" />
<rect x="23" y="37" width="1" height="1" fill="#FFFFFF" />
<rect x="24" y="37" width="1" height="1" fill="#FFFFFF" />
<rect x="25" y="37" width="1" height="1" fill="#FFFFFF" />
<rect x="36" y="37" width="1" height="1" fill="#FFFFFF" />
<rect x="37" y="37" width="1" height="1" fill="#FFFFFF" />
<rect x="10" y="38" width="1" height="1" fill="#FFFFFF" />
<rect x="11" y="38" width="1" height="1" fill="#FFFFFF" />
<rect x="22" y="38" width="1" height="1" fill="#FFFFFF" />
<rect x="23" y="38" width="1" height="1" fill="#FFFFFF" />
<rect x="24" y="38" width="1" height="1" fill="#FFFFFF" />
<rect x="25" y="38" width="1" height="1" fill="#FFFFFF" />
<rect x="36" y="38" width="1" height="1" fill="#FFFFFF" />
<rect x="37" y="38" width="1" height="1" fill="#FFFFFF" />
<rect x="10" y="39" width="1" height="1" fill="#FFFFFF" />
<rect x="11" y="39" width="1" height="1" fill="#FFFFFF" />
<rect x="22" y="39" width="1" height="1" fill="#FFFFFF" opacity="0.509804" />
<rect x="23" y="39" width="1" height="1" fill="#FFFFFF" />
<rect x="24" y="39" width="1" height="1" fill="#FFFFFF" />
<rect x="25" y="39" width="1" height="1" fill="#FFFFFF" opacity="0.486275" />
<rect x="36" y="39" width="1" height="1" fill="#FFFFFF" />
<rect x="37" y="39" width="1" height="1" fill="#FFFFFF" />
<rect x="10" y="40" width="1" height="1" fill="#FFFFFF" />
<rect x="11" y="40" width="1" height="1" fill="#FFFFFF" />
<rect x="36" y="40" width="1" height="1" fill="#FFFFFF" />
<rect x="37" y="40" width="1" height="1" fill="#FFFFFF" />
<rect x="10" y="41" width="1" height="1" fill="#FFFFFF" />
<rect x="11" y="41" width="1" height="1" fill="#FFFFFF" />
<rect x="36" y="41" width="1" height="1" fill="#FFFFFF" />
<rect x="37" y="41" width="1" height="1" fill="#FFFFFF" />
<rect x="10" y="42" width="1" height="1" fill="#FFFFFF" />
<rect x="11" y="42" width="1" height="1" fill="#FFFFFF" />
<rect x="36" y="42" width="1" height="1" fill="#FFFFFF" />
<rect x="37" y="42" width="1" height="1" fill="#FFFFFF" />
<rect x="10" y="43" width="1" height="1" fill="#FFFFFF" />
<rect x="11" y="43" width="1" height="1" fill="#FFFFFF" />
<rect x="12" y="43" width="1" height="1" fill="#FFFFFF" opacity="0.694118" />
<rect x="13" y="43" width="1" height="1" fill="#FFFFFF" opacity="0.694118" />
<rect x="14" y="43" width="1" height="1" fill="#FFFFFF" opacity="0.694118" />
<rect x="15" y="43" width="1" height="1" fill="#FFFFFF" opacity="0.694118" />
<rect x="16" y="43" width="1" height="1" fill="#FFFFFF" opacity="0.694118" />
<rect x="17" y="43" width="1" height="1" fill="#FFFFFF" opacity="0.694118" />
<rect x="18" y="43" width="1" height="1" fill="#FFFFFF" opacity="0.694118" />
<rect x="19" y="43" width="1" height="1" fill="#FFFFFF" opacity="0.694118" />
<rect x="20" y="43" width="1" height="1" fill="#FFFFFF" opacity="0.694118" />
<rect x="21" y="43" width="1" height="1" fill="#FFFFFF" opacity="0.694118" />
<rect x="22" y="43" width="1" height="1" fill="#FFFFFF" opacity="0.694118" />
<rect x="23" y="43" width="1" height="1" fill="#FFFFFF" opacity="0.694118" />
<rect x="24" y="43" width="1" height="1" fill="#FFFFFF" opacity="0.694118" />
<rect x="25" y="43" width="1" height="1" fill="#FFFFFF" opacity="0.694118" />
<rect x="26" y="43" width="1" height="1" fill="#FFFFFF" opacity="0.694118" />
<rect x="27" y="43" width="1" height="1" fill="#FFFFFF" opacity="0.694118" />
<rect x="28" y="43" width="1" height="1" fill="#FFFFFF" opacity="0.694118" />
<rect x="29" y="43" width="1" height="1" fill="#FFFFFF" opacity="0.694118" />
<rect x="30" y="43" width="1" height="1" fill="#FFFFFF" opacity="0.694118" />
<rect x="31" y="43" width="1" height="1" fill="#FFFFFF" opacity="0.694118" />
<rect x="32" y="43" width="1" height="1" fill="#FFFFFF" opacity="0.694118" />
<rect x="33" y="43" width="1" height="1" fill="#FFFFFF" opacity="0.694118" />
<rect x="34" y="43" width="1" height="1" fill="#FFFFFF" opacity="0.694118" />
<rect x="35" y="43" width="1" height="1" fill="#FFFFFF" opacity="0.694118" />
<rect x="36" y="43" width="1" height="1" fill="#FFFFFF" />
<rect x="37" y="43" width="1" height="1" fill="#FFFFFF" />
<rect x="10" y="44" width="1" height="1" fill="#FFFFFF" />
<rect x="11" y="44" width="1" height="1" fill="#FFFFFF" />
<rect x="12" y="44" width="1" height="1" fill="#FFFFFF" />
<rect x="13" y="44" width="1" height="1" fill="#FFFFFF" />
<rect x="14" y="44" width="1" height="1" fill="#FFFFFF" />
<rect x="15" y="44" width="1" height="1" fill="#FFFFFF" />
<rect x="16" y="44" width="1" height="1" fill="#FFFFFF" />
<rect x="17" y="44" width="1" height="1" fill="#FFFFFF" />
<rect x="18" y="44" width="1" height="1" fill="#FFFFFF" />
<rect x="19" y="44" width="1" height="1" fill="#FFFFFF" />
<rect x="20" y="44" width="1" height="1" fill="#FFFFFF" />
<rect x="21" y="44" width="1" height="1" fill="#FFFFFF" />
<rect x="22" y="44" width="1" height="1" fill="#FFFFFF" />
<rect x="23" y="44" width="1" height="1" fill="#FFFFFF" />
<rect x="24" y="44" width="1" height="1" fill="#FFFFFF" />
<rect x="25" y="44" width="1" height="1" fill="#FFFFFF" />
<rect x="26" y="44" width="1" height="1" fill="#FFFFFF" />
<rect x="27" y="44" width="1" height="1" fill="#FFFFFF" />
<rect x="28" y="44" width="1" height="1" fill="#FFFFFF" />
<rect x="29" y="44" width="1" height="1" fill="#FFFFFF" />
<rect x="30" y="44" width="1" height="1" fill="#FFFFFF" />
<rect x="31" y="44" width="1" height="1" fill="#FFFFFF" />
<rect x="32" y="44" width="1" height="1" fill="#FFFFFF" />
<rect x="33" y="44" width="1" height="1" fill="#FFFFFF" />
<rect x="34" y="44" width="1" height="1" fill="#FFFFFF" />
<rect x="35" y="44" width="1" height="1" fill="#FFFFFF" />
<rect x="36" y="44" width="1" height="1" fill="#FFFFFF" />
<rect x="37" y="44" width="1" height="1" fill="#FFFFFF" />
<rect x="10" y="45" width="1" height="1" fill="#FFFFFF" opacity="0.478431" />
<rect x="11" y="45" width="1" height="1" fill="#FFFFFF" opacity="0.478431" />
<rect x="12" y="45" width="1" height="1" fill="#FFFFFF" opacity="0.478431" />
<rect x="13" y="45" width="1" height="1" fill="#FFFFFF" opacity="0.478431" />
<rect x="14" y="45" width="1" height="1" fill="#FFFFFF" opacity="0.478431" />
<rect x="15" y="45" width="1" height="1" fill="#FFFFFF" opacity="0.478431" />
<rect x="16" y="45" width="1" height="1" fill="#FFFFFF" opacity="0.478431" />
<rect x="17" y="45" width="1" height="1" fill="#FFFFFF" opacity="0.478431" />
<rect x="18" y="45" width="1" height="1" fill="#FFFFFF" opacity="0.478431" />
<rect x="19" y="45" width="1" height="1" fill="#FFFFFF" opacity="0.478431" />
<rect x="20" y="45" width="1" height="1" fill="#FFFFFF" opacity="0.478431" />
<rect x="21" y="45" width="1" height="1" fill="#FFFFFF" opacity="0.478431" />
<rect x="22" y="45" width="1" height="1" fill="#FFFFFF" opacity="0.478431" />
<rect x="23" y="45" width="1" height="1" fill="#FFFFFF" opacity="0.478431" />
<rect x="24" y="45" width="1" height="1" fill="#FFFFFF" opacity="0.478431" />
<rect x="25" y="45" width="1" height="1" fill="#FFFFFF" opacity="0.478431" />
<rect x="26" y="45" width="1" height="1" fill="#FFFFFF" opacity="0.478431" />
<rect x="27" y="45" width="1" height="1" fill="#FFFFFF" opacity="0.478431" />
<rect x="28" y="45" width="1" height="1" fill="#FFFFFF" opacity="0.478431" />
<rect x="29" y="45" width="1" height="1" fill="#FFFFFF" opacity="0.478431" />
<rect x="30" y="45" width="1" height="1" fill="#FFFFFF" opacity="0.478431" />
<rect x="31" y="45" width="1" height="1" fill="#FFFFFF" opacity="0.478431" />
<rect x="32" y="45" width="1" height="1" fill="#FFFFFF" opacity="0.478431" />
<rect x="33" y="45" width="1" height="1" fill="#FFFFFF" opacity="0.478431" />
<rect x="34" y="45" width="1" height="1" fill="#FFFFFF" opacity="0.478431" />
<rect x="35" y="45" width="1" height="1" fill="#FFFFFF" opacity="0.478431" />
<rect x="36" y="45" width="1" height="1" fill="#FFFFFF" opacity="0.478431" />
<rect x="37" y="45" width="1" height="1" fill="#FFFFFF" opacity="0.478431" />
</svg>