<?xml version="1.0" standalone="no"?><!DOCTYPE svg PUBLIC "-//W3C//DTD SVG 1.1//EN" "http://www.w3.org/Graphics/SVG/1.1/DTD/svg11.dtd"><svg t="1703507221553" class="icon" viewBox="0 0 1024 1024" version="1.1" xmlns="http://www.w3.org/2000/svg" p-id="2718" xmlns:xlink="http://www.w3.org/1999/xlink" width="48" height="48"><path d="M766 416.8v310c0 11-9 20-20 20H278c-11 0-20-9-20-20v-310c0-11 9-20 20-20h468c11 0 20 9 20 20z m-498-50c-22.1 0-40 17.9-40 40v330c0 22.1 17.9 40 40 40h488c22.1 0 40-17.9 40-40v-330c0-22.1-17.9-40-40-40H268z" fill="#ffffff" p-id="2719"></path><path d="M690.5 371.1S544 223.8 543 222.8c-20.5-20.5-40.1-21.1-61.2 0L333.5 371.1c-5.9 5.9-5.9 15.4 0 21.2 5.9 5.9 15.4 5.9 21.2 0l150.2-150.2c3.9-3.9 10.2-3.9 14.1 0l150.2 150.2c5.9 5.9 15.4 5.9 21.2 0 6-5.9 6-15.4 0.1-21.2zM678 536.8H348c-8.3 0-15-6.7-15-15s6.7-15 15-15h330c8.3 0 15 6.7 15 15s-6.7 15-15 15zM588 626.8H348c-8.3 0-15-6.7-15-15s6.7-15 15-15h240c8.3 0 15 6.7 15 15s-6.7 15-15 15z" fill="#ffffff" p-id="2720"></path></svg>