<?xml version="1.0" encoding="UTF-8" ?>
<svg version="1.1" width="48" height="48" xmlns="http://www.w3.org/2000/svg" shape-rendering="crispEdges">
<rect x="19" y="5" width="1" height="1" fill="#FFFFFF" opacity="0.082353" />
<rect x="20" y="5" width="1" height="1" fill="#FFFFFF" opacity="0.384314" />
<rect x="21" y="5" width="1" height="1" fill="#FFFFFF" opacity="0.568627" />
<rect x="22" y="5" width="1" height="1" fill="#FFFFFF" opacity="0.752941" />
<rect x="23" y="5" width="1" height="1" fill="#FFFFFF" opacity="0.815686" />
<rect x="24" y="5" width="1" height="1" fill="#FFFFFF" opacity="0.815686" />
<rect x="25" y="5" width="1" height="1" fill="#FFFFFF" opacity="0.717647" />
<rect x="26" y="5" width="1" height="1" fill="#FFFFFF" opacity="0.600000" />
<rect x="27" y="5" width="1" height="1" fill="#FFFFFF" opacity="0.384314" />
<rect x="28" y="5" width="1" height="1" fill="#FFFFFF" opacity="0.043137" />
<rect x="16" y="6" width="1" height="1" fill="#FFFFFF" opacity="0.050980" />
<rect x="17" y="6" width="1" height="1" fill="#FFFFFF" opacity="0.584314" />
<rect x="18" y="6" width="1" height="1" fill="#FFFFFF" />
<rect x="19" y="6" width="1" height="1" fill="#FFFFFF" />
<rect x="20" y="6" width="1" height="1" fill="#FFFFFF" />
<rect x="21" y="6" width="1" height="1" fill="#FFFFFF" />
<rect x="22" y="6" width="1" height="1" fill="#FFFFFF" />
<rect x="23" y="6" width="1" height="1" fill="#FFFFFF" />
<rect x="24" y="6" width="1" height="1" fill="#FFFFFF" />
<rect x="25" y="6" width="1" height="1" fill="#FFFFFF" />
<rect x="26" y="6" width="1" height="1" fill="#FFFFFF" />
<rect x="27" y="6" width="1" height="1" fill="#FFFFFF" />
<rect x="28" y="6" width="1" height="1" fill="#FFFFFF" />
<rect x="29" y="6" width="1" height="1" fill="#FFFFFF" />
<rect x="30" y="6" width="1" height="1" fill="#FFFFFF" opacity="0.592157" />
<rect x="31" y="6" width="1" height="1" fill="#FFFFFF" opacity="0.074510" />
<rect x="15" y="7" width="1" height="1" fill="#FFFFFF" opacity="0.882353" />
<rect x="16" y="7" width="1" height="1" fill="#FFFFFF" />
<rect x="17" y="7" width="1" height="1" fill="#FFFFFF" />
<rect x="18" y="7" width="1" height="1" fill="#FFFFFF" />
<rect x="19" y="7" width="1" height="1" fill="#FFFFFF" />
<rect x="20" y="7" width="1" height="1" fill="#FFFFFF" opacity="0.874510" />
<rect x="21" y="7" width="1" height="1" fill="#FFFFFF" opacity="0.368627" />
<rect x="22" y="7" width="1" height="1" fill="#FFFFFF" opacity="0.082353" />
<rect x="23" y="7" width="1" height="1" fill="#FFFFFF" opacity="0.070588" />
<rect x="24" y="7" width="1" height="1" fill="#FFFFFF" opacity="0.062745" />
<rect x="25" y="7" width="1" height="1" fill="#FFFFFF" opacity="0.145098" />
<rect x="26" y="7" width="1" height="1" fill="#FFFFFF" opacity="0.427451" />
<rect x="27" y="7" width="1" height="1" fill="#FFFFFF" opacity="0.764706" />
<rect x="28" y="7" width="1" height="1" fill="#FFFFFF" />
<rect x="29" y="7" width="1" height="1" fill="#FFFFFF" />
<rect x="30" y="7" width="1" height="1" fill="#FFFFFF" />
<rect x="31" y="7" width="1" height="1" fill="#FFFFFF" />
<rect x="32" y="7" width="1" height="1" fill="#FFFFFF" opacity="0.874510" />
<rect x="13" y="8" width="1" height="1" fill="#FFFFFF" opacity="0.505882" />
<rect x="14" y="8" width="1" height="1" fill="#FFFFFF" />
<rect x="15" y="8" width="1" height="1" fill="#FFFFFF" />
<rect x="16" y="8" width="1" height="1" fill="#FFFFFF" />
<rect x="17" y="8" width="1" height="1" fill="#FFFFFF" opacity="0.631373" />
<rect x="18" y="8" width="1" height="1" fill="#FFFFFF" opacity="0.129412" />
<rect x="29" y="8" width="1" height="1" fill="#FFFFFF" opacity="0.098039" />
<rect x="30" y="8" width="1" height="1" fill="#FFFFFF" opacity="0.627451" />
<rect x="31" y="8" width="1" height="1" fill="#FFFFFF" />
<rect x="32" y="8" width="1" height="1" fill="#FFFFFF" />
<rect x="33" y="8" width="1" height="1" fill="#FFFFFF" opacity="0.988235" />
<rect x="34" y="8" width="1" height="1" fill="#FFFFFF" opacity="0.572549" />
<rect x="11" y="9" width="1" height="1" fill="#FFFFFF" opacity="0.027451" />
<rect x="12" y="9" width="1" height="1" fill="#FFFFFF" opacity="0.898039" />
<rect x="13" y="9" width="1" height="1" fill="#FFFFFF" />
<rect x="14" y="9" width="1" height="1" fill="#FFFFFF" />
<rect x="15" y="9" width="1" height="1" fill="#FFFFFF" opacity="0.690196" />
<rect x="32" y="9" width="1" height="1" fill="#FFFFFF" opacity="0.729412" />
<rect x="33" y="9" width="1" height="1" fill="#FFFFFF" />
<rect x="34" y="9" width="1" height="1" fill="#FFFFFF" />
<rect x="35" y="9" width="1" height="1" fill="#FFFFFF" opacity="0.800000" />
<rect x="36" y="9" width="1" height="1" fill="#FFFFFF" opacity="0.027451" />
<rect x="10" y="10" width="1" height="1" fill="#FFFFFF" opacity="0.003922" />
<rect x="11" y="10" width="1" height="1" fill="#FFFFFF" />
<rect x="12" y="10" width="1" height="1" fill="#FFFFFF" />
<rect x="13" y="10" width="1" height="1" fill="#FFFFFF" opacity="0.992157" />
<rect x="14" y="10" width="1" height="1" fill="#FFFFFF" opacity="0.082353" />
<rect x="33" y="10" width="1" height="1" fill="#FFFFFF" opacity="0.039216" />
<rect x="34" y="10" width="1" height="1" fill="#FFFFFF" opacity="0.992157" />
<rect x="35" y="10" width="1" height="1" fill="#FFFFFF" />
<rect x="36" y="10" width="1" height="1" fill="#FFFFFF" opacity="0.964706" />
<rect x="37" y="10" width="1" height="1" fill="#FFFFFF" opacity="0.007843" />
<rect x="9" y="11" width="1" height="1" fill="#FFFFFF" opacity="0.027451" />
<rect x="10" y="11" width="1" height="1" fill="#FFFFFF" />
<rect x="11" y="11" width="1" height="1" fill="#FFFFFF" />
<rect x="12" y="11" width="1" height="1" fill="#FFFFFF" opacity="0.921569" />
<rect x="34" y="11" width="1" height="1" fill="#FFFFFF" opacity="0.027451" />
<rect x="35" y="11" width="1" height="1" fill="#FFFFFF" opacity="0.843137" />
<rect x="36" y="11" width="1" height="1" fill="#FFFFFF" />
<rect x="37" y="11" width="1" height="1" fill="#FFFFFF" opacity="0.964706" />
<rect x="38" y="11" width="1" height="1" fill="#FFFFFF" opacity="0.027451" />
<rect x="9" y="12" width="1" height="1" fill="#FFFFFF" opacity="0.898039" />
<rect x="10" y="12" width="1" height="1" fill="#FFFFFF" />
<rect x="11" y="12" width="1" height="1" fill="#FFFFFF" opacity="0.882353" />
<rect x="35" y="12" width="1" height="1" fill="#FFFFFF" opacity="0.905882" />
<rect x="36" y="12" width="1" height="1" fill="#FFFFFF" />
<rect x="37" y="12" width="1" height="1" fill="#FFFFFF" />
<rect x="38" y="12" width="1" height="1" fill="#FFFFFF" opacity="0.850980" />
<rect x="8" y="13" width="1" height="1" fill="#FFFFFF" opacity="0.505882" />
<rect x="9" y="13" width="1" height="1" fill="#FFFFFF" />
<rect x="10" y="13" width="1" height="1" fill="#FFFFFF" opacity="0.992157" />
<rect x="33" y="13" width="1" height="1" fill="#FFFFFF" opacity="0.011765" />
<rect x="34" y="13" width="1" height="1" fill="#FFFFFF" opacity="0.956863" />
<rect x="35" y="13" width="1" height="1" fill="#FFFFFF" />
<rect x="36" y="13" width="1" height="1" fill="#FFFFFF" opacity="0.921569" />
<rect x="37" y="13" width="1" height="1" fill="#FFFFFF" opacity="0.992157" />
<rect x="38" y="13" width="1" height="1" fill="#FFFFFF" />
<rect x="39" y="13" width="1" height="1" fill="#FFFFFF" opacity="0.576471" />
<rect x="8" y="14" width="1" height="1" fill="#FFFFFF" />
<rect x="9" y="14" width="1" height="1" fill="#FFFFFF" />
<rect x="10" y="14" width="1" height="1" fill="#FFFFFF" opacity="0.039216" />
<rect x="33" y="14" width="1" height="1" fill="#FFFFFF" opacity="0.945098" />
<rect x="34" y="14" width="1" height="1" fill="#FFFFFF" />
<rect x="35" y="14" width="1" height="1" fill="#FFFFFF" opacity="0.937255" />
<rect x="37" y="14" width="1" height="1" fill="#FFFFFF" opacity="0.058824" />
<rect x="38" y="14" width="1" height="1" fill="#FFFFFF" />
<rect x="39" y="14" width="1" height="1" fill="#FFFFFF" opacity="0.988235" />
<rect x="7" y="15" width="1" height="1" fill="#FFFFFF" opacity="0.874510" />
<rect x="8" y="15" width="1" height="1" fill="#FFFFFF" />
<rect x="9" y="15" width="1" height="1" fill="#FFFFFF" opacity="0.643137" />
<rect x="32" y="15" width="1" height="1" fill="#FFFFFF" opacity="0.905882" />
<rect x="33" y="15" width="1" height="1" fill="#FFFFFF" />
<rect x="34" y="15" width="1" height="1" fill="#FFFFFF" opacity="0.941176" />
<rect x="38" y="15" width="1" height="1" fill="#FFFFFF" opacity="0.627451" />
<rect x="39" y="15" width="1" height="1" fill="#FFFFFF" />
<rect x="40" y="15" width="1" height="1" fill="#FFFFFF" opacity="0.874510" />
<rect x="6" y="16" width="1" height="1" fill="#FFFFFF" opacity="0.098039" />
<rect x="7" y="16" width="1" height="1" fill="#FFFFFF" />
<rect x="8" y="16" width="1" height="1" fill="#FFFFFF" />
<rect x="16" y="16" width="1" height="1" fill="#FFFFFF" opacity="0.850980" />
<rect x="17" y="16" width="1" height="1" fill="#FFFFFF" opacity="0.909804" />
<rect x="25" y="16" width="1" height="1" fill="#FFFFFF" opacity="0.164706" />
<rect x="26" y="16" width="1" height="1" fill="#FFFFFF" />
<rect x="27" y="16" width="1" height="1" fill="#FFFFFF" />
<rect x="28" y="16" width="1" height="1" fill="#FFFFFF" />
<rect x="29" y="16" width="1" height="1" fill="#FFFFFF" opacity="0.717647" />
<rect x="30" y="16" width="1" height="1" fill="#FFFFFF" opacity="0.007843" />
<rect x="31" y="16" width="1" height="1" fill="#FFFFFF" opacity="0.929412" />
<rect x="32" y="16" width="1" height="1" fill="#FFFFFF" />
<rect x="33" y="16" width="1" height="1" fill="#FFFFFF" opacity="0.917647" />
<rect x="39" y="16" width="1" height="1" fill="#FFFFFF" />
<rect x="40" y="16" width="1" height="1" fill="#FFFFFF" />
<rect x="41" y="16" width="1" height="1" fill="#FFFFFF" opacity="0.074510" />
<rect x="6" y="17" width="1" height="1" fill="#FFFFFF" opacity="0.576471" />
<rect x="7" y="17" width="1" height="1" fill="#FFFFFF" />
<rect x="8" y="17" width="1" height="1" fill="#FFFFFF" opacity="0.623529" />
<rect x="15" y="17" width="1" height="1" fill="#FFFFFF" opacity="0.058824" />
<rect x="16" y="17" width="1" height="1" fill="#FFFFFF" />
<rect x="17" y="17" width="1" height="1" fill="#FFFFFF" />
<rect x="18" y="17" width="1" height="1" fill="#FFFFFF" opacity="0.258824" />
<rect x="25" y="17" width="1" height="1" fill="#FFFFFF" opacity="0.988235" />
<rect x="26" y="17" width="1" height="1" fill="#FFFFFF" />
<rect x="27" y="17" width="1" height="1" fill="#FFFFFF" />
<rect x="28" y="17" width="1" height="1" fill="#FFFFFF" />
<rect x="29" y="17" width="1" height="1" fill="#FFFFFF" opacity="0.870588" />
<rect x="30" y="17" width="1" height="1" fill="#FFFFFF" opacity="0.976471" />
<rect x="31" y="17" width="1" height="1" fill="#FFFFFF" />
<rect x="32" y="17" width="1" height="1" fill="#FFFFFF" opacity="0.941176" />
<rect x="39" y="17" width="1" height="1" fill="#FFFFFF" opacity="0.556863" />
<rect x="40" y="17" width="1" height="1" fill="#FFFFFF" />
<rect x="41" y="17" width="1" height="1" fill="#FFFFFF" opacity="0.592157" />
<rect x="6" y="18" width="1" height="1" fill="#FFFFFF" />
<rect x="7" y="18" width="1" height="1" fill="#FFFFFF" />
<rect x="8" y="18" width="1" height="1" fill="#FFFFFF" opacity="0.113725" />
<rect x="15" y="18" width="1" height="1" fill="#FFFFFF" opacity="0.643137" />
<rect x="16" y="18" width="1" height="1" fill="#FFFFFF" />
<rect x="17" y="18" width="1" height="1" fill="#FFFFFF" />
<rect x="18" y="18" width="1" height="1" fill="#FFFFFF" opacity="0.858824" />
<rect x="25" y="18" width="1" height="1" fill="#FFFFFF" />
<rect x="26" y="18" width="1" height="1" fill="#FFFFFF" />
<rect x="29" y="18" width="1" height="1" fill="#FFFFFF" opacity="0.909804" />
<rect x="30" y="18" width="1" height="1" fill="#FFFFFF" />
<rect x="31" y="18" width="1" height="1" fill="#FFFFFF" opacity="0.937255" />
<rect x="32" y="18" width="1" height="1" fill="#FFFFFF" opacity="0.552941" />
<rect x="33" y="18" width="1" height="1" fill="#FFFFFF" />
<rect x="34" y="18" width="1" height="1" fill="#FFFFFF" opacity="0.647059" />
<rect x="39" y="18" width="1" height="1" fill="#FFFFFF" opacity="0.098039" />
<rect x="40" y="18" width="1" height="1" fill="#FFFFFF" />
<rect x="41" y="18" width="1" height="1" fill="#FFFFFF" />
<rect x="5" y="19" width="1" height="1" fill="#FFFFFF" opacity="0.062745" />
<rect x="6" y="19" width="1" height="1" fill="#FFFFFF" />
<rect x="7" y="19" width="1" height="1" fill="#FFFFFF" />
<rect x="15" y="19" width="1" height="1" fill="#FFFFFF" />
<rect x="16" y="19" width="1" height="1" fill="#FFFFFF" />
<rect x="17" y="19" width="1" height="1" fill="#FFFFFF" opacity="0.988235" />
<rect x="18" y="19" width="1" height="1" fill="#FFFFFF" />
<rect x="19" y="19" width="1" height="1" fill="#FFFFFF" opacity="0.054902" />
<rect x="25" y="19" width="1" height="1" fill="#FFFFFF" />
<rect x="26" y="19" width="1" height="1" fill="#FFFFFF" />
<rect x="28" y="19" width="1" height="1" fill="#FFFFFF" opacity="0.913725" />
<rect x="29" y="19" width="1" height="1" fill="#FFFFFF" />
<rect x="30" y="19" width="1" height="1" fill="#FFFFFF" opacity="0.929412" />
<rect x="32" y="19" width="1" height="1" fill="#FFFFFF" opacity="0.152941" />
<rect x="33" y="19" width="1" height="1" fill="#FFFFFF" />
<rect x="34" y="19" width="1" height="1" fill="#FFFFFF" />
<rect x="35" y="19" width="1" height="1" fill="#FFFFFF" opacity="0.333333" />
<rect x="40" y="19" width="1" height="1" fill="#FFFFFF" />
<rect x="41" y="19" width="1" height="1" fill="#FFFFFF" />
<rect x="42" y="19" width="1" height="1" fill="#FFFFFF" opacity="0.043137" />
<rect x="5" y="20" width="1" height="1" fill="#FFFFFF" opacity="0.384314" />
<rect x="6" y="20" width="1" height="1" fill="#FFFFFF" />
<rect x="7" y="20" width="1" height="1" fill="#FFFFFF" opacity="0.764706" />
<rect x="14" y="20" width="1" height="1" fill="#FFFFFF" opacity="0.529412" />
<rect x="15" y="20" width="1" height="1" fill="#FFFFFF" />
<rect x="16" y="20" width="1" height="1" fill="#FFFFFF" opacity="0.819608" />
<rect x="17" y="20" width="1" height="1" fill="#FFFFFF" opacity="0.560784" />
<rect x="18" y="20" width="1" height="1" fill="#FFFFFF" />
<rect x="19" y="20" width="1" height="1" fill="#FFFFFF" opacity="0.749020" />
<rect x="25" y="20" width="1" height="1" fill="#FFFFFF" opacity="0.313725" />
<rect x="26" y="20" width="1" height="1" fill="#FFFFFF" opacity="0.360784" />
<rect x="27" y="20" width="1" height="1" fill="#FFFFFF" opacity="0.984314" />
<rect x="28" y="20" width="1" height="1" fill="#FFFFFF" />
<rect x="29" y="20" width="1" height="1" fill="#FFFFFF" opacity="0.937255" />
<rect x="33" y="20" width="1" height="1" fill="#FFFFFF" opacity="0.219608" />
<rect x="34" y="20" width="1" height="1" fill="#FFFFFF" />
<rect x="35" y="20" width="1" height="1" fill="#FFFFFF" />
<rect x="40" y="20" width="1" height="1" fill="#FFFFFF" opacity="0.764706" />
<rect x="41" y="20" width="1" height="1" fill="#FFFFFF" />
<rect x="42" y="20" width="1" height="1" fill="#FFFFFF" opacity="0.384314" />
<rect x="5" y="21" width="1" height="1" fill="#FFFFFF" opacity="0.600000" />
<rect x="6" y="21" width="1" height="1" fill="#FFFFFF" />
<rect x="7" y="21" width="1" height="1" fill="#FFFFFF" opacity="0.254902" />
<rect x="14" y="21" width="1" height="1" fill="#FFFFFF" opacity="0.956863" />
<rect x="15" y="21" width="1" height="1" fill="#FFFFFF" />
<rect x="16" y="21" width="1" height="1" fill="#FFFFFF" opacity="0.070588" />
<rect x="18" y="21" width="1" height="1" fill="#FFFFFF" />
<rect x="19" y="21" width="1" height="1" fill="#FFFFFF" opacity="0.988235" />
<rect x="26" y="21" width="1" height="1" fill="#FFFFFF" opacity="0.925490" />
<rect x="27" y="21" width="1" height="1" fill="#FFFFFF" />
<rect x="28" y="21" width="1" height="1" fill="#FFFFFF" opacity="0.937255" />
<rect x="34" y="21" width="1" height="1" fill="#FFFFFF" opacity="0.901961" />
<rect x="35" y="21" width="1" height="1" fill="#FFFFFF" />
<rect x="36" y="21" width="1" height="1" fill="#FFFFFF" opacity="0.380392" />
<rect x="40" y="21" width="1" height="1" fill="#FFFFFF" opacity="0.368627" />
<rect x="41" y="21" width="1" height="1" fill="#FFFFFF" />
<rect x="42" y="21" width="1" height="1" fill="#FFFFFF" opacity="0.600000" />
<rect x="5" y="22" width="1" height="1" fill="#FFFFFF" opacity="0.752941" />
<rect x="6" y="22" width="1" height="1" fill="#FFFFFF" />
<rect x="7" y="22" width="1" height="1" fill="#FFFFFF" opacity="0.082353" />
<rect x="13" y="22" width="1" height="1" fill="#FFFFFF" opacity="0.156863" />
<rect x="14" y="22" width="1" height="1" fill="#FFFFFF" />
<rect x="15" y="22" width="1" height="1" fill="#FFFFFF" opacity="0.909804" />
<rect x="18" y="22" width="1" height="1" fill="#FFFFFF" opacity="0.733333" />
<rect x="19" y="22" width="1" height="1" fill="#FFFFFF" />
<rect x="20" y="22" width="1" height="1" fill="#FFFFFF" opacity="0.572549" />
<rect x="25" y="22" width="1" height="1" fill="#FFFFFF" opacity="0.905882" />
<rect x="26" y="22" width="1" height="1" fill="#FFFFFF" />
<rect x="27" y="22" width="1" height="1" fill="#FFFFFF" opacity="0.945098" />
<rect x="34" y="22" width="1" height="1" fill="#FFFFFF" opacity="0.168627" />
<rect x="35" y="22" width="1" height="1" fill="#FFFFFF" />
<rect x="36" y="22" width="1" height="1" fill="#FFFFFF" opacity="0.772549" />
<rect x="40" y="22" width="1" height="1" fill="#FFFFFF" opacity="0.078431" />
<rect x="41" y="22" width="1" height="1" fill="#FFFFFF" />
<rect x="42" y="22" width="1" height="1" fill="#FFFFFF" opacity="0.752941" />
<rect x="5" y="23" width="1" height="1" fill="#FFFFFF" opacity="0.815686" />
<rect x="6" y="23" width="1" height="1" fill="#FFFFFF" />
<rect x="7" y="23" width="1" height="1" fill="#FFFFFF" opacity="0.058824" />
<rect x="13" y="23" width="1" height="1" fill="#FFFFFF" />
<rect x="14" y="23" width="1" height="1" fill="#FFFFFF" />
<rect x="15" y="23" width="1" height="1" fill="#FFFFFF" opacity="0.423529" />
<rect x="18" y="23" width="1" height="1" fill="#FFFFFF" opacity="0.066667" />
<rect x="19" y="23" width="1" height="1" fill="#FFFFFF" />
<rect x="20" y="23" width="1" height="1" fill="#FFFFFF" opacity="0.988235" />
<rect x="21" y="23" width="1" height="1" fill="#FFFFFF" opacity="0.003922" />
<rect x="23" y="23" width="1" height="1" fill="#FFFFFF" opacity="0.011765" />
<rect x="24" y="23" width="1" height="1" fill="#FFFFFF" opacity="0.949020" />
<rect x="25" y="23" width="1" height="1" fill="#FFFFFF" />
<rect x="26" y="23" width="1" height="1" fill="#FFFFFF" opacity="0.917647" />
<rect x="35" y="23" width="1" height="1" fill="#FFFFFF" />
<rect x="36" y="23" width="1" height="1" fill="#FFFFFF" opacity="0.894118" />
<rect x="40" y="23" width="1" height="1" fill="#FFFFFF" opacity="0.070588" />
<rect x="41" y="23" width="1" height="1" fill="#FFFFFF" />
<rect x="42" y="23" width="1" height="1" fill="#FFFFFF" opacity="0.815686" />
<rect x="5" y="24" width="1" height="1" fill="#FFFFFF" opacity="0.815686" />
<rect x="6" y="24" width="1" height="1" fill="#FFFFFF" />
<rect x="7" y="24" width="1" height="1" fill="#FFFFFF" opacity="0.062745" />
<rect x="12" y="24" width="1" height="1" fill="#FFFFFF" opacity="0.133333" />
<rect x="13" y="24" width="1" height="1" fill="#FFFFFF" />
<rect x="14" y="24" width="1" height="1" fill="#FFFFFF" />
<rect x="19" y="24" width="1" height="1" fill="#FFFFFF" opacity="0.858824" />
<rect x="20" y="24" width="1" height="1" fill="#FFFFFF" />
<rect x="21" y="24" width="1" height="1" fill="#FFFFFF" opacity="0.211765" />
<rect x="23" y="24" width="1" height="1" fill="#FFFFFF" opacity="0.949020" />
<rect x="24" y="24" width="1" height="1" fill="#FFFFFF" />
<rect x="25" y="24" width="1" height="1" fill="#FFFFFF" opacity="0.937255" />
<rect x="35" y="24" width="1" height="1" fill="#FFFFFF" />
<rect x="36" y="24" width="1" height="1" fill="#FFFFFF" opacity="0.894118" />
<rect x="40" y="24" width="1" height="1" fill="#FFFFFF" opacity="0.062745" />
<rect x="41" y="24" width="1" height="1" fill="#FFFFFF" />
<rect x="42" y="24" width="1" height="1" fill="#FFFFFF" opacity="0.815686" />
<rect x="5" y="25" width="1" height="1" fill="#FFFFFF" opacity="0.752941" />
<rect x="6" y="25" width="1" height="1" fill="#FFFFFF" />
<rect x="7" y="25" width="1" height="1" fill="#FFFFFF" opacity="0.070588" />
<rect x="12" y="25" width="1" height="1" fill="#FFFFFF" opacity="0.654902" />
<rect x="13" y="25" width="1" height="1" fill="#FFFFFF" />
<rect x="14" y="25" width="1" height="1" fill="#FFFFFF" opacity="0.745098" />
<rect x="15" y="25" width="1" height="1" fill="#FFFFFF" opacity="0.341176" />
<rect x="16" y="25" width="1" height="1" fill="#FFFFFF" opacity="0.341176" />
<rect x="17" y="25" width="1" height="1" fill="#FFFFFF" opacity="0.341176" />
<rect x="18" y="25" width="1" height="1" fill="#FFFFFF" opacity="0.341176" />
<rect x="19" y="25" width="1" height="1" fill="#FFFFFF" opacity="0.325490" />
<rect x="20" y="25" width="1" height="1" fill="#FFFFFF" />
<rect x="21" y="25" width="1" height="1" fill="#FFFFFF" opacity="0.360784" />
<rect x="22" y="25" width="1" height="1" fill="#FFFFFF" opacity="0.905882" />
<rect x="23" y="25" width="1" height="1" fill="#FFFFFF" />
<rect x="24" y="25" width="1" height="1" fill="#FFFFFF" opacity="0.937255" />
<rect x="25" y="25" width="1" height="1" fill="#FFFFFF" opacity="0.149020" />
<rect x="26" y="25" width="1" height="1" fill="#FFFFFF" opacity="0.152941" />
<rect x="34" y="25" width="1" height="1" fill="#FFFFFF" opacity="0.180392" />
<rect x="35" y="25" width="1" height="1" fill="#FFFFFF" />
<rect x="36" y="25" width="1" height="1" fill="#FFFFFF" opacity="0.788235" />
<rect x="40" y="25" width="1" height="1" fill="#FFFFFF" opacity="0.078431" />
<rect x="41" y="25" width="1" height="1" fill="#FFFFFF" />
<rect x="42" y="25" width="1" height="1" fill="#FFFFFF" opacity="0.752941" />
<rect x="5" y="26" width="1" height="1" fill="#FFFFFF" opacity="0.568627" />
<rect x="6" y="26" width="1" height="1" fill="#FFFFFF" />
<rect x="7" y="26" width="1" height="1" fill="#FFFFFF" opacity="0.313725" />
<rect x="12" y="26" width="1" height="1" fill="#FFFFFF" />
<rect x="13" y="26" width="1" height="1" fill="#FFFFFF" />
<rect x="14" y="26" width="1" height="1" fill="#FFFFFF" />
<rect x="15" y="26" width="1" height="1" fill="#FFFFFF" />
<rect x="16" y="26" width="1" height="1" fill="#FFFFFF" />
<rect x="17" y="26" width="1" height="1" fill="#FFFFFF" />
<rect x="18" y="26" width="1" height="1" fill="#FFFFFF" />
<rect x="19" y="26" width="1" height="1" fill="#FFFFFF" opacity="0.839216" />
<rect x="20" y="26" width="1" height="1" fill="#FFFFFF" opacity="0.003922" />
<rect x="21" y="26" width="1" height="1" fill="#FFFFFF" opacity="0.925490" />
<rect x="22" y="26" width="1" height="1" fill="#FFFFFF" />
<rect x="23" y="26" width="1" height="1" fill="#FFFFFF" opacity="0.917647" />
<rect x="25" y="26" width="1" height="1" fill="#FFFFFF" />
<rect x="26" y="26" width="1" height="1" fill="#FFFFFF" opacity="0.972549" />
<rect x="34" y="26" width="1" height="1" fill="#FFFFFF" opacity="0.890196" />
<rect x="35" y="26" width="1" height="1" fill="#FFFFFF" />
<rect x="36" y="26" width="1" height="1" fill="#FFFFFF" opacity="0.380392" />
<rect x="40" y="26" width="1" height="1" fill="#FFFFFF" opacity="0.341176" />
<rect x="41" y="26" width="1" height="1" fill="#FFFFFF" />
<rect x="42" y="26" width="1" height="1" fill="#FFFFFF" opacity="0.568627" />
<rect x="5" y="27" width="1" height="1" fill="#FFFFFF" opacity="0.384314" />
<rect x="6" y="27" width="1" height="1" fill="#FFFFFF" />
<rect x="7" y="27" width="1" height="1" fill="#FFFFFF" opacity="0.756863" />
<rect x="11" y="27" width="1" height="1" fill="#FFFFFF" opacity="0.529412" />
<rect x="12" y="27" width="1" height="1" fill="#FFFFFF" />
<rect x="13" y="27" width="1" height="1" fill="#FFFFFF" opacity="0.952941" />
<rect x="14" y="27" width="1" height="1" fill="#FFFFFF" opacity="0.639216" />
<rect x="15" y="27" width="1" height="1" fill="#FFFFFF" opacity="0.639216" />
<rect x="16" y="27" width="1" height="1" fill="#FFFFFF" opacity="0.639216" />
<rect x="17" y="27" width="1" height="1" fill="#FFFFFF" opacity="0.639216" />
<rect x="18" y="27" width="1" height="1" fill="#FFFFFF" opacity="0.639216" />
<rect x="19" y="27" width="1" height="1" fill="#FFFFFF" opacity="0.188235" />
<rect x="20" y="27" width="1" height="1" fill="#FFFFFF" opacity="0.984314" />
<rect x="21" y="27" width="1" height="1" fill="#FFFFFF" />
<rect x="22" y="27" width="1" height="1" fill="#FFFFFF" opacity="0.945098" />
<rect x="25" y="27" width="1" height="1" fill="#FFFFFF" />
<rect x="26" y="27" width="1" height="1" fill="#FFFFFF" />
<rect x="33" y="27" width="1" height="1" fill="#FFFFFF" opacity="0.121569" />
<rect x="34" y="27" width="1" height="1" fill="#FFFFFF" />
<rect x="35" y="27" width="1" height="1" fill="#FFFFFF" />
<rect x="40" y="27" width="1" height="1" fill="#FFFFFF" opacity="0.874510" />
<rect x="41" y="27" width="1" height="1" fill="#FFFFFF" />
<rect x="42" y="27" width="1" height="1" fill="#FFFFFF" opacity="0.325490" />
<rect x="5" y="28" width="1" height="1" fill="#FFFFFF" opacity="0.082353" />
<rect x="6" y="28" width="1" height="1" fill="#FFFFFF" />
<rect x="7" y="28" width="1" height="1" fill="#FFFFFF" />
<rect x="11" y="28" width="1" height="1" fill="#FFFFFF" opacity="0.960784" />
<rect x="12" y="28" width="1" height="1" fill="#FFFFFF" />
<rect x="13" y="28" width="1" height="1" fill="#FFFFFF" opacity="0.074510" />
<rect x="19" y="28" width="1" height="1" fill="#FFFFFF" opacity="0.913725" />
<rect x="20" y="28" width="1" height="1" fill="#FFFFFF" />
<rect x="21" y="28" width="1" height="1" fill="#FFFFFF" opacity="0.937255" />
<rect x="22" y="28" width="1" height="1" fill="#FFFFFF" opacity="0.290196" />
<rect x="25" y="28" width="1" height="1" fill="#FFFFFF" />
<rect x="26" y="28" width="1" height="1" fill="#FFFFFF" />
<rect x="32" y="28" width="1" height="1" fill="#FFFFFF" opacity="0.227451" />
<rect x="33" y="28" width="1" height="1" fill="#FFFFFF" />
<rect x="34" y="28" width="1" height="1" fill="#FFFFFF" />
<rect x="35" y="28" width="1" height="1" fill="#FFFFFF" opacity="0.368627" />
<rect x="40" y="28" width="1" height="1" fill="#FFFFFF" />
<rect x="41" y="28" width="1" height="1" fill="#FFFFFF" />
<rect x="42" y="28" width="1" height="1" fill="#FFFFFF" opacity="0.105882" />
<rect x="6" y="29" width="1" height="1" fill="#FFFFFF" />
<rect x="7" y="29" width="1" height="1" fill="#FFFFFF" />
<rect x="8" y="29" width="1" height="1" fill="#FFFFFF" opacity="0.129412" />
<rect x="10" y="29" width="1" height="1" fill="#FFFFFF" opacity="0.149020" />
<rect x="11" y="29" width="1" height="1" fill="#FFFFFF" />
<rect x="12" y="29" width="1" height="1" fill="#FFFFFF" opacity="0.941176" />
<rect x="18" y="29" width="1" height="1" fill="#FFFFFF" opacity="0.909804" />
<rect x="19" y="29" width="1" height="1" fill="#FFFFFF" />
<rect x="20" y="29" width="1" height="1" fill="#FFFFFF" opacity="0.937255" />
<rect x="21" y="29" width="1" height="1" fill="#FFFFFF" opacity="0.498039" />
<rect x="22" y="29" width="1" height="1" fill="#FFFFFF" />
<rect x="23" y="29" width="1" height="1" fill="#FFFFFF" opacity="0.537255" />
<rect x="25" y="29" width="1" height="1" fill="#FFFFFF" />
<rect x="26" y="29" width="1" height="1" fill="#FFFFFF" />
<rect x="29" y="29" width="1" height="1" fill="#FFFFFF" opacity="0.043137" />
<rect x="30" y="29" width="1" height="1" fill="#FFFFFF" opacity="0.188235" />
<rect x="31" y="29" width="1" height="1" fill="#FFFFFF" opacity="0.745098" />
<rect x="32" y="29" width="1" height="1" fill="#FFFFFF" />
<rect x="33" y="29" width="1" height="1" fill="#FFFFFF" />
<rect x="34" y="29" width="1" height="1" fill="#FFFFFF" opacity="0.607843" />
<rect x="39" y="29" width="1" height="1" fill="#FFFFFF" opacity="0.086275" />
<rect x="40" y="29" width="1" height="1" fill="#FFFFFF" />
<rect x="41" y="29" width="1" height="1" fill="#FFFFFF" />
<rect x="6" y="30" width="1" height="1" fill="#FFFFFF" opacity="0.584314" />
<rect x="7" y="30" width="1" height="1" fill="#FFFFFF" />
<rect x="8" y="30" width="1" height="1" fill="#FFFFFF" opacity="0.556863" />
<rect x="10" y="30" width="1" height="1" fill="#FFFFFF" />
<rect x="11" y="30" width="1" height="1" fill="#FFFFFF" />
<rect x="12" y="30" width="1" height="1" fill="#FFFFFF" opacity="0.341176" />
<rect x="16" y="30" width="1" height="1" fill="#FFFFFF" opacity="0.007843" />
<rect x="17" y="30" width="1" height="1" fill="#FFFFFF" opacity="0.976471" />
<rect x="18" y="30" width="1" height="1" fill="#FFFFFF" />
<rect x="19" y="30" width="1" height="1" fill="#FFFFFF" opacity="0.929412" />
<rect x="21" y="30" width="1" height="1" fill="#FFFFFF" opacity="0.086275" />
<rect x="22" y="30" width="1" height="1" fill="#FFFFFF" />
<rect x="23" y="30" width="1" height="1" fill="#FFFFFF" opacity="0.960784" />
<rect x="25" y="30" width="1" height="1" fill="#FFFFFF" opacity="0.988235" />
<rect x="26" y="30" width="1" height="1" fill="#FFFFFF" />
<rect x="27" y="30" width="1" height="1" fill="#FFFFFF" />
<rect x="28" y="30" width="1" height="1" fill="#FFFFFF" />
<rect x="29" y="30" width="1" height="1" fill="#FFFFFF" />
<rect x="30" y="30" width="1" height="1" fill="#FFFFFF" />
<rect x="31" y="30" width="1" height="1" fill="#FFFFFF" />
<rect x="32" y="30" width="1" height="1" fill="#FFFFFF" opacity="0.992157" />
<rect x="33" y="30" width="1" height="1" fill="#FFFFFF" opacity="0.384314" />
<rect x="39" y="30" width="1" height="1" fill="#FFFFFF" opacity="0.627451" />
<rect x="40" y="30" width="1" height="1" fill="#FFFFFF" />
<rect x="41" y="30" width="1" height="1" fill="#FFFFFF" opacity="0.584314" />
<rect x="6" y="31" width="1" height="1" fill="#FFFFFF" opacity="0.074510" />
<rect x="7" y="31" width="1" height="1" fill="#FFFFFF" />
<rect x="8" y="31" width="1" height="1" fill="#FFFFFF" />
<rect x="10" y="31" width="1" height="1" fill="#FFFFFF" opacity="0.529412" />
<rect x="11" y="31" width="1" height="1" fill="#FFFFFF" opacity="0.929412" />
<rect x="16" y="31" width="1" height="1" fill="#FFFFFF" opacity="0.929412" />
<rect x="17" y="31" width="1" height="1" fill="#FFFFFF" />
<rect x="18" y="31" width="1" height="1" fill="#FFFFFF" opacity="0.937255" />
<rect x="22" y="31" width="1" height="1" fill="#FFFFFF" opacity="0.784314" />
<rect x="23" y="31" width="1" height="1" fill="#FFFFFF" opacity="0.823529" />
<rect x="25" y="31" width="1" height="1" fill="#FFFFFF" opacity="0.176471" />
<rect x="26" y="31" width="1" height="1" fill="#FFFFFF" />
<rect x="27" y="31" width="1" height="1" fill="#FFFFFF" />
<rect x="28" y="31" width="1" height="1" fill="#FFFFFF" />
<rect x="29" y="31" width="1" height="1" fill="#FFFFFF" />
<rect x="30" y="31" width="1" height="1" fill="#FFFFFF" opacity="0.890196" />
<rect x="31" y="31" width="1" height="1" fill="#FFFFFF" opacity="0.321569" />
<rect x="32" y="31" width="1" height="1" fill="#FFFFFF" opacity="0.011765" />
<rect x="39" y="31" width="1" height="1" fill="#FFFFFF" />
<rect x="40" y="31" width="1" height="1" fill="#FFFFFF" />
<rect x="41" y="31" width="1" height="1" fill="#FFFFFF" opacity="0.070588" />
<rect x="7" y="32" width="1" height="1" fill="#FFFFFF" opacity="0.827451" />
<rect x="8" y="32" width="1" height="1" fill="#FFFFFF" />
<rect x="9" y="32" width="1" height="1" fill="#FFFFFF" opacity="0.643137" />
<rect x="15" y="32" width="1" height="1" fill="#FFFFFF" opacity="0.905882" />
<rect x="16" y="32" width="1" height="1" fill="#FFFFFF" />
<rect x="17" y="32" width="1" height="1" fill="#FFFFFF" opacity="0.941176" />
<rect x="38" y="32" width="1" height="1" fill="#FFFFFF" opacity="0.643137" />
<rect x="39" y="32" width="1" height="1" fill="#FFFFFF" />
<rect x="40" y="32" width="1" height="1" fill="#FFFFFF" opacity="0.874510" />
<rect x="8" y="33" width="1" height="1" fill="#FFFFFF" />
<rect x="9" y="33" width="1" height="1" fill="#FFFFFF" />
<rect x="10" y="33" width="1" height="1" fill="#FFFFFF" opacity="0.058824" />
<rect x="13" y="33" width="1" height="1" fill="#FFFFFF" opacity="0.011765" />
<rect x="14" y="33" width="1" height="1" fill="#FFFFFF" opacity="0.945098" />
<rect x="15" y="33" width="1" height="1" fill="#FFFFFF" />
<rect x="16" y="33" width="1" height="1" fill="#FFFFFF" opacity="0.917647" />
<rect x="37" y="33" width="1" height="1" fill="#FFFFFF" opacity="0.039216" />
<rect x="38" y="33" width="1" height="1" fill="#FFFFFF" />
<rect x="39" y="33" width="1" height="1" fill="#FFFFFF" />
<rect x="8" y="34" width="1" height="1" fill="#FFFFFF" opacity="0.545098" />
<rect x="9" y="34" width="1" height="1" fill="#FFFFFF" />
<rect x="10" y="34" width="1" height="1" fill="#FFFFFF" opacity="0.976471" />
<rect x="13" y="34" width="1" height="1" fill="#FFFFFF" opacity="0.956863" />
<rect x="14" y="34" width="1" height="1" fill="#FFFFFF" />
<rect x="15" y="34" width="1" height="1" fill="#FFFFFF" opacity="0.941176" />
<rect x="37" y="34" width="1" height="1" fill="#FFFFFF" opacity="0.992157" />
<rect x="38" y="34" width="1" height="1" fill="#FFFFFF" />
<rect x="39" y="34" width="1" height="1" fill="#FFFFFF" opacity="0.505882" />
<rect x="9" y="35" width="1" height="1" fill="#FFFFFF" opacity="0.850980" />
<rect x="10" y="35" width="1" height="1" fill="#FFFFFF" />
<rect x="11" y="35" width="1" height="1" fill="#FFFFFF" opacity="0.882353" />
<rect x="12" y="35" width="1" height="1" fill="#FFFFFF" opacity="0.905882" />
<rect x="13" y="35" width="1" height="1" fill="#FFFFFF" />
<rect x="14" y="35" width="1" height="1" fill="#FFFFFF" opacity="0.937255" />
<rect x="36" y="35" width="1" height="1" fill="#FFFFFF" opacity="0.882353" />
<rect x="37" y="35" width="1" height="1" fill="#FFFFFF" />
<rect x="38" y="35" width="1" height="1" fill="#FFFFFF" opacity="0.898039" />
<rect x="9" y="36" width="1" height="1" fill="#FFFFFF" opacity="0.027451" />
<rect x="10" y="36" width="1" height="1" fill="#FFFFFF" opacity="0.964706" />
<rect x="11" y="36" width="1" height="1" fill="#FFFFFF" />
<rect x="12" y="36" width="1" height="1" fill="#FFFFFF" />
<rect x="13" y="36" width="1" height="1" fill="#FFFFFF" opacity="0.921569" />
<rect x="35" y="36" width="1" height="1" fill="#FFFFFF" opacity="0.882353" />
<rect x="36" y="36" width="1" height="1" fill="#FFFFFF" />
<rect x="37" y="36" width="1" height="1" fill="#FFFFFF" opacity="0.964706" />
<rect x="10" y="37" width="1" height="1" fill="#FFFFFF" opacity="0.003922" />
<rect x="11" y="37" width="1" height="1" fill="#FFFFFF" opacity="0.964706" />
<rect x="12" y="37" width="1" height="1" fill="#FFFFFF" />
<rect x="13" y="37" width="1" height="1" fill="#FFFFFF" opacity="0.976471" />
<rect x="14" y="37" width="1" height="1" fill="#FFFFFF" opacity="0.082353" />
<rect x="33" y="37" width="1" height="1" fill="#FFFFFF" opacity="0.058824" />
<rect x="34" y="37" width="1" height="1" fill="#FFFFFF" opacity="0.992157" />
<rect x="35" y="37" width="1" height="1" fill="#FFFFFF" />
<rect x="36" y="37" width="1" height="1" fill="#FFFFFF" opacity="0.964706" />
<rect x="37" y="37" width="1" height="1" fill="#FFFFFF" opacity="0.007843" />
<rect x="11" y="38" width="1" height="1" fill="#FFFFFF" opacity="0.027451" />
<rect x="12" y="38" width="1" height="1" fill="#FFFFFF" opacity="0.800000" />
<rect x="13" y="38" width="1" height="1" fill="#FFFFFF" />
<rect x="14" y="38" width="1" height="1" fill="#FFFFFF" />
<rect x="15" y="38" width="1" height="1" fill="#FFFFFF" opacity="0.615686" />
<rect x="32" y="38" width="1" height="1" fill="#FFFFFF" opacity="0.627451" />
<rect x="33" y="38" width="1" height="1" fill="#FFFFFF" />
<rect x="34" y="38" width="1" height="1" fill="#FFFFFF" />
<rect x="35" y="38" width="1" height="1" fill="#FFFFFF" opacity="0.898039" />
<rect x="13" y="39" width="1" height="1" fill="#FFFFFF" opacity="0.615686" />
<rect x="14" y="39" width="1" height="1" fill="#FFFFFF" />
<rect x="15" y="39" width="1" height="1" fill="#FFFFFF" />
<rect x="16" y="39" width="1" height="1" fill="#FFFFFF" />
<rect x="17" y="39" width="1" height="1" fill="#FFFFFF" opacity="0.631373" />
<rect x="18" y="39" width="1" height="1" fill="#FFFFFF" opacity="0.098039" />
<rect x="29" y="39" width="1" height="1" fill="#FFFFFF" opacity="0.098039" />
<rect x="30" y="39" width="1" height="1" fill="#FFFFFF" opacity="0.474510" />
<rect x="31" y="39" width="1" height="1" fill="#FFFFFF" />
<rect x="32" y="39" width="1" height="1" fill="#FFFFFF" />
<rect x="33" y="39" width="1" height="1" fill="#FFFFFF" />
<rect x="34" y="39" width="1" height="1" fill="#FFFFFF" opacity="0.572549" />
<rect x="15" y="40" width="1" height="1" fill="#FFFFFF" opacity="0.882353" />
<rect x="16" y="40" width="1" height="1" fill="#FFFFFF" />
<rect x="17" y="40" width="1" height="1" fill="#FFFFFF" />
<rect x="18" y="40" width="1" height="1" fill="#FFFFFF" />
<rect x="19" y="40" width="1" height="1" fill="#FFFFFF" />
<rect x="20" y="40" width="1" height="1" fill="#FFFFFF" opacity="0.874510" />
<rect x="21" y="40" width="1" height="1" fill="#FFFFFF" opacity="0.313725" />
<rect x="22" y="40" width="1" height="1" fill="#FFFFFF" opacity="0.078431" />
<rect x="23" y="40" width="1" height="1" fill="#FFFFFF" opacity="0.062745" />
<rect x="24" y="40" width="1" height="1" fill="#FFFFFF" opacity="0.062745" />
<rect x="25" y="40" width="1" height="1" fill="#FFFFFF" opacity="0.082353" />
<rect x="26" y="40" width="1" height="1" fill="#FFFFFF" opacity="0.286275" />
<rect x="27" y="40" width="1" height="1" fill="#FFFFFF" opacity="0.756863" />
<rect x="28" y="40" width="1" height="1" fill="#FFFFFF" />
<rect x="29" y="40" width="1" height="1" fill="#FFFFFF" />
<rect x="30" y="40" width="1" height="1" fill="#FFFFFF" />
<rect x="31" y="40" width="1" height="1" fill="#FFFFFF" />
<rect x="32" y="40" width="1" height="1" fill="#FFFFFF" opacity="0.882353" />
<rect x="16" y="41" width="1" height="1" fill="#FFFFFF" opacity="0.054902" />
<rect x="17" y="41" width="1" height="1" fill="#FFFFFF" opacity="0.584314" />
<rect x="18" y="41" width="1" height="1" fill="#FFFFFF" />
<rect x="19" y="41" width="1" height="1" fill="#FFFFFF" />
<rect x="20" y="41" width="1" height="1" fill="#FFFFFF" />
<rect x="21" y="41" width="1" height="1" fill="#FFFFFF" />
<rect x="22" y="41" width="1" height="1" fill="#FFFFFF" />
<rect x="23" y="41" width="1" height="1" fill="#FFFFFF" />
<rect x="24" y="41" width="1" height="1" fill="#FFFFFF" />
<rect x="25" y="41" width="1" height="1" fill="#FFFFFF" />
<rect x="26" y="41" width="1" height="1" fill="#FFFFFF" />
<rect x="27" y="41" width="1" height="1" fill="#FFFFFF" />
<rect x="28" y="41" width="1" height="1" fill="#FFFFFF" />
<rect x="29" y="41" width="1" height="1" fill="#FFFFFF" />
<rect x="30" y="41" width="1" height="1" fill="#FFFFFF" opacity="0.584314" />
<rect x="31" y="41" width="1" height="1" fill="#FFFFFF" opacity="0.101961" />
<rect x="19" y="42" width="1" height="1" fill="#FFFFFF" opacity="0.082353" />
<rect x="20" y="42" width="1" height="1" fill="#FFFFFF" opacity="0.384314" />
<rect x="21" y="42" width="1" height="1" fill="#FFFFFF" opacity="0.568627" />
<rect x="22" y="42" width="1" height="1" fill="#FFFFFF" opacity="0.717647" />
<rect x="23" y="42" width="1" height="1" fill="#FFFFFF" opacity="0.815686" />
<rect x="24" y="42" width="1" height="1" fill="#FFFFFF" opacity="0.815686" />
<rect x="25" y="42" width="1" height="1" fill="#FFFFFF" opacity="0.752941" />
<rect x="26" y="42" width="1" height="1" fill="#FFFFFF" opacity="0.600000" />
<rect x="27" y="42" width="1" height="1" fill="#FFFFFF" opacity="0.443137" />
<rect x="28" y="42" width="1" height="1" fill="#FFFFFF" opacity="0.043137" />
</svg>