<?xml version="1.0" encoding="UTF-8" ?>
<svg version="1.1" width="48" height="48" xmlns="http://www.w3.org/2000/svg" shape-rendering="crispEdges">
<rect x="10" y="2" width="1" height="1" fill="#FFFFFF" opacity="0.478431" />
<rect x="11" y="2" width="1" height="1" fill="#FFFFFF" opacity="0.478431" />
<rect x="12" y="2" width="1" height="1" fill="#FFFFFF" opacity="0.478431" />
<rect x="13" y="2" width="1" height="1" fill="#FFFFFF" opacity="0.478431" />
<rect x="14" y="2" width="1" height="1" fill="#FFFFFF" opacity="0.478431" />
<rect x="15" y="2" width="1" height="1" fill="#FFFFFF" opacity="0.478431" />
<rect x="16" y="2" width="1" height="1" fill="#FFFFFF" opacity="0.478431" />
<rect x="17" y="2" width="1" height="1" fill="#FFFFFF" opacity="0.478431" />
<rect x="18" y="2" width="1" height="1" fill="#FFFFFF" opacity="0.478431" />
<rect x="19" y="2" width="1" height="1" fill="#FFFFFF" opacity="0.478431" />
<rect x="20" y="2" width="1" height="1" fill="#FFFFFF" opacity="0.478431" />
<rect x="21" y="2" width="1" height="1" fill="#FFFFFF" opacity="0.478431" />
<rect x="22" y="2" width="1" height="1" fill="#FFFFFF" opacity="0.478431" />
<rect x="23" y="2" width="1" height="1" fill="#FFFFFF" opacity="0.478431" />
<rect x="24" y="2" width="1" height="1" fill="#FFFFFF" opacity="0.478431" />
<rect x="25" y="2" width="1" height="1" fill="#FFFFFF" opacity="0.478431" />
<rect x="26" y="2" width="1" height="1" fill="#FFFFFF" opacity="0.478431" />
<rect x="27" y="2" width="1" height="1" fill="#FFFFFF" opacity="0.478431" />
<rect x="28" y="2" width="1" height="1" fill="#FFFFFF" opacity="0.478431" />
<rect x="29" y="2" width="1" height="1" fill="#FFFFFF" opacity="0.478431" />
<rect x="30" y="2" width="1" height="1" fill="#FFFFFF" opacity="0.478431" />
<rect x="31" y="2" width="1" height="1" fill="#FFFFFF" opacity="0.478431" />
<rect x="32" y="2" width="1" height="1" fill="#FFFFFF" opacity="0.478431" />
<rect x="33" y="2" width="1" height="1" fill="#FFFFFF" opacity="0.478431" />
<rect x="34" y="2" width="1" height="1" fill="#FFFFFF" opacity="0.478431" />
<rect x="35" y="2" width="1" height="1" fill="#FFFFFF" opacity="0.478431" />
<rect x="36" y="2" width="1" height="1" fill="#FFFFFF" opacity="0.478431" />
<rect x="37" y="2" width="1" height="1" fill="#FFFFFF" opacity="0.478431" />
<rect x="10" y="3" width="1" height="1" fill="#FFFFFF" />
<rect x="11" y="3" width="1" height="1" fill="#FFFFFF" />
<rect x="12" y="3" width="1" height="1" fill="#FFFFFF" />
<rect x="13" y="3" width="1" height="1" fill="#FFFFFF" />
<rect x="14" y="3" width="1" height="1" fill="#FFFFFF" />
<rect x="15" y="3" width="1" height="1" fill="#FFFFFF" />
<rect x="16" y="3" width="1" height="1" fill="#FFFFFF" />
<rect x="17" y="3" width="1" height="1" fill="#FFFFFF" />
<rect x="18" y="3" width="1" height="1" fill="#FFFFFF" />
<rect x="19" y="3" width="1" height="1" fill="#FFFFFF" />
<rect x="20" y="3" width="1" height="1" fill="#FFFFFF" />
<rect x="21" y="3" width="1" height="1" fill="#FFFFFF" />
<rect x="22" y="3" width="1" height="1" fill="#FFFFFF" />
<rect x="23" y="3" width="1" height="1" fill="#FFFFFF" />
<rect x="24" y="3" width="1" height="1" fill="#FFFFFF" />
<rect x="25" y="3" width="1" height="1" fill="#FFFFFF" />
<rect x="26" y="3" width="1" height="1" fill="#FFFFFF" />
<rect x="27" y="3" width="1" height="1" fill="#FFFFFF" />
<rect x="28" y="3" width="1" height="1" fill="#FFFFFF" />
<rect x="29" y="3" width="1" height="1" fill="#FFFFFF" />
<rect x="30" y="3" width="1" height="1" fill="#FFFFFF" />
<rect x="31" y="3" width="1" height="1" fill="#FFFFFF" />
<rect x="32" y="3" width="1" height="1" fill="#FFFFFF" />
<rect x="33" y="3" width="1" height="1" fill="#FFFFFF" />
<rect x="34" y="3" width="1" height="1" fill="#FFFFFF" />
<rect x="35" y="3" width="1" height="1" fill="#FFFFFF" />
<rect x="36" y="3" width="1" height="1" fill="#FFFFFF" />
<rect x="37" y="3" width="1" height="1" fill="#FFFFFF" />
<rect x="10" y="4" width="1" height="1" fill="#FFFFFF" />
<rect x="11" y="4" width="1" height="1" fill="#FFFFFF" />
<rect x="12" y="4" width="1" height="1" fill="#FFFFFF" opacity="0.694118" />
<rect x="13" y="4" width="1" height="1" fill="#FFFFFF" opacity="0.694118" />
<rect x="14" y="4" width="1" height="1" fill="#FFFFFF" opacity="0.694118" />
<rect x="15" y="4" width="1" height="1" fill="#FFFFFF" opacity="0.694118" />
<rect x="16" y="4" width="1" height="1" fill="#FFFFFF" opacity="0.694118" />
<rect x="17" y="4" width="1" height="1" fill="#FFFFFF" opacity="0.694118" />
<rect x="18" y="4" width="1" height="1" fill="#FFFFFF" opacity="0.694118" />
<rect x="19" y="4" width="1" height="1" fill="#FFFFFF" opacity="0.694118" />
<rect x="20" y="4" width="1" height="1" fill="#FFFFFF" opacity="0.694118" />
<rect x="21" y="4" width="1" height="1" fill="#FFFFFF" opacity="0.694118" />
<rect x="22" y="4" width="1" height="1" fill="#FFFFFF" opacity="0.694118" />
<rect x="23" y="4" width="1" height="1" fill="#FFFFFF" opacity="0.694118" />
<rect x="24" y="4" width="1" height="1" fill="#FFFFFF" opacity="0.694118" />
<rect x="25" y="4" width="1" height="1" fill="#FFFFFF" opacity="0.694118" />
<rect x="26" y="4" width="1" height="1" fill="#FFFFFF" opacity="0.694118" />
<rect x="27" y="4" width="1" height="1" fill="#FFFFFF" opacity="0.694118" />
<rect x="28" y="4" width="1" height="1" fill="#FFFFFF" opacity="0.694118" />
<rect x="29" y="4" width="1" height="1" fill="#FFFFFF" opacity="0.694118" />
<rect x="30" y="4" width="1" height="1" fill="#FFFFFF" opacity="0.694118" />
<rect x="31" y="4" width="1" height="1" fill="#FFFFFF" opacity="0.694118" />
<rect x="32" y="4" width="1" height="1" fill="#FFFFFF" opacity="0.694118" />
<rect x="33" y="4" width="1" height="1" fill="#FFFFFF" opacity="0.694118" />
<rect x="34" y="4" width="1" height="1" fill="#FFFFFF" opacity="0.694118" />
<rect x="35" y="4" width="1" height="1" fill="#FFFFFF" opacity="0.694118" />
<rect x="36" y="4" width="1" height="1" fill="#FFFFFF" />
<rect x="37" y="4" width="1" height="1" fill="#FFFFFF" />
<rect x="10" y="5" width="1" height="1" fill="#FFFFFF" />
<rect x="11" y="5" width="1" height="1" fill="#FFFFFF" />
<rect x="36" y="5" width="1" height="1" fill="#FFFFFF" />
<rect x="37" y="5" width="1" height="1" fill="#FFFFFF" />
<rect x="10" y="6" width="1" height="1" fill="#FFFFFF" />
<rect x="11" y="6" width="1" height="1" fill="#FFFFFF" />
<rect x="36" y="6" width="1" height="1" fill="#FFFFFF" />
<rect x="37" y="6" width="1" height="1" fill="#FFFFFF" />
<rect x="10" y="7" width="1" height="1" fill="#FFFFFF" />
<rect x="11" y="7" width="1" height="1" fill="#FFFFFF" />
<rect x="36" y="7" width="1" height="1" fill="#FFFFFF" />
<rect x="37" y="7" width="1" height="1" fill="#FFFFFF" />
<rect x="10" y="8" width="1" height="1" fill="#FFFFFF" />
<rect x="11" y="8" width="1" height="1" fill="#FFFFFF" />
<rect x="36" y="8" width="1" height="1" fill="#FFFFFF" />
<rect x="37" y="8" width="1" height="1" fill="#FFFFFF" />
<rect x="10" y="9" width="1" height="1" fill="#FFFFFF" />
<rect x="11" y="9" width="1" height="1" fill="#FFFFFF" />
<rect x="36" y="9" width="1" height="1" fill="#FFFFFF" />
<rect x="37" y="9" width="1" height="1" fill="#FFFFFF" />
<rect x="2" y="10" width="1" height="1" fill="#FFFFFF" opacity="0.003922" />
<rect x="3" y="10" width="1" height="1" fill="#FFFFFF" opacity="0.125490" />
<rect x="10" y="10" width="1" height="1" fill="#FFFFFF" />
<rect x="11" y="10" width="1" height="1" fill="#FFFFFF" />
<rect x="36" y="10" width="1" height="1" fill="#FFFFFF" />
<rect x="37" y="10" width="1" height="1" fill="#FFFFFF" />
<rect x="44" y="10" width="1" height="1" fill="#FFFFFF" opacity="0.235294" />
<rect x="1" y="11" width="1" height="1" fill="#FFFFFF" opacity="0.125490" />
<rect x="2" y="11" width="1" height="1" fill="#FFFFFF" opacity="0.956863" />
<rect x="3" y="11" width="1" height="1" fill="#FFFFFF" opacity="0.988235" />
<rect x="4" y="11" width="1" height="1" fill="#FFFFFF" opacity="0.074510" />
<rect x="10" y="11" width="1" height="1" fill="#FFFFFF" />
<rect x="11" y="11" width="1" height="1" fill="#FFFFFF" />
<rect x="36" y="11" width="1" height="1" fill="#FFFFFF" />
<rect x="37" y="11" width="1" height="1" fill="#FFFFFF" />
<rect x="43" y="11" width="1" height="1" fill="#FFFFFF" opacity="0.066667" />
<rect x="44" y="11" width="1" height="1" fill="#FFFFFF" opacity="0.992157" />
<rect x="45" y="11" width="1" height="1" fill="#FFFFFF" opacity="0.937255" />
<rect x="46" y="11" width="1" height="1" fill="#FFFFFF" opacity="0.062745" />
<rect x="2" y="12" width="1" height="1" fill="#FFFFFF" opacity="0.827451" />
<rect x="3" y="12" width="1" height="1" fill="#FFFFFF" />
<rect x="4" y="12" width="1" height="1" fill="#FFFFFF" opacity="0.941176" />
<rect x="5" y="12" width="1" height="1" fill="#FFFFFF" opacity="0.023529" />
<rect x="10" y="12" width="1" height="1" fill="#FFFFFF" />
<rect x="11" y="12" width="1" height="1" fill="#FFFFFF" />
<rect x="36" y="12" width="1" height="1" fill="#FFFFFF" />
<rect x="37" y="12" width="1" height="1" fill="#FFFFFF" />
<rect x="43" y="12" width="1" height="1" fill="#FFFFFF" />
<rect x="44" y="12" width="1" height="1" fill="#FFFFFF" />
<rect x="45" y="12" width="1" height="1" fill="#FFFFFF" opacity="0.870588" />
<rect x="2" y="13" width="1" height="1" fill="#FFFFFF" opacity="0.043137" />
<rect x="3" y="13" width="1" height="1" fill="#FFFFFF" opacity="0.984314" />
<rect x="4" y="13" width="1" height="1" fill="#FFFFFF" />
<rect x="5" y="13" width="1" height="1" fill="#FFFFFF" opacity="0.600000" />
<rect x="10" y="13" width="1" height="1" fill="#FFFFFF" />
<rect x="11" y="13" width="1" height="1" fill="#FFFFFF" />
<rect x="36" y="13" width="1" height="1" fill="#FFFFFF" />
<rect x="37" y="13" width="1" height="1" fill="#FFFFFF" />
<rect x="42" y="13" width="1" height="1" fill="#FFFFFF" opacity="0.662745" />
<rect x="43" y="13" width="1" height="1" fill="#FFFFFF" />
<rect x="44" y="13" width="1" height="1" fill="#FFFFFF" />
<rect x="3" y="14" width="1" height="1" fill="#FFFFFF" opacity="0.168627" />
<rect x="4" y="14" width="1" height="1" fill="#FFFFFF" />
<rect x="5" y="14" width="1" height="1" fill="#FFFFFF" />
<rect x="6" y="14" width="1" height="1" fill="#FFFFFF" opacity="0.341176" />
<rect x="10" y="14" width="1" height="1" fill="#FFFFFF" />
<rect x="11" y="14" width="1" height="1" fill="#FFFFFF" />
<rect x="36" y="14" width="1" height="1" fill="#FFFFFF" />
<rect x="37" y="14" width="1" height="1" fill="#FFFFFF" />
<rect x="41" y="14" width="1" height="1" fill="#FFFFFF" opacity="0.321569" />
<rect x="42" y="14" width="1" height="1" fill="#FFFFFF" />
<rect x="43" y="14" width="1" height="1" fill="#FFFFFF" />
<rect x="44" y="14" width="1" height="1" fill="#FFFFFF" opacity="0.156863" />
<rect x="4" y="15" width="1" height="1" fill="#FFFFFF" opacity="0.917647" />
<rect x="5" y="15" width="1" height="1" fill="#FFFFFF" />
<rect x="6" y="15" width="1" height="1" fill="#FFFFFF" opacity="0.941176" />
<rect x="10" y="15" width="1" height="1" fill="#FFFFFF" />
<rect x="11" y="15" width="1" height="1" fill="#FFFFFF" />
<rect x="36" y="15" width="1" height="1" fill="#FFFFFF" />
<rect x="37" y="15" width="1" height="1" fill="#FFFFFF" />
<rect x="40" y="15" width="1" height="1" fill="#FFFFFF" opacity="0.003922" />
<rect x="41" y="15" width="1" height="1" fill="#FFFFFF" opacity="0.941176" />
<rect x="42" y="15" width="1" height="1" fill="#FFFFFF" />
<rect x="43" y="15" width="1" height="1" fill="#FFFFFF" opacity="0.890196" />
<rect x="3" y="16" width="1" height="1" fill="#FFFFFF" opacity="0.372549" />
<rect x="4" y="16" width="1" height="1" fill="#FFFFFF" />
<rect x="5" y="16" width="1" height="1" fill="#FFFFFF" />
<rect x="6" y="16" width="1" height="1" fill="#FFFFFF" opacity="0.074510" />
<rect x="10" y="16" width="1" height="1" fill="#FFFFFF" />
<rect x="11" y="16" width="1" height="1" fill="#FFFFFF" />
<rect x="36" y="16" width="1" height="1" fill="#FFFFFF" />
<rect x="37" y="16" width="1" height="1" fill="#FFFFFF" />
<rect x="41" y="16" width="1" height="1" fill="#FFFFFF" opacity="0.074510" />
<rect x="42" y="16" width="1" height="1" fill="#FFFFFF" />
<rect x="43" y="16" width="1" height="1" fill="#FFFFFF" />
<rect x="44" y="16" width="1" height="1" fill="#FFFFFF" opacity="0.372549" />
<rect x="2" y="17" width="1" height="1" fill="#FFFFFF" opacity="0.141176" />
<rect x="3" y="17" width="1" height="1" fill="#FFFFFF" />
<rect x="4" y="17" width="1" height="1" fill="#FFFFFF" />
<rect x="5" y="17" width="1" height="1" fill="#FFFFFF" opacity="0.450980" />
<rect x="10" y="17" width="1" height="1" fill="#FFFFFF" />
<rect x="11" y="17" width="1" height="1" fill="#FFFFFF" />
<rect x="36" y="17" width="1" height="1" fill="#FFFFFF" />
<rect x="37" y="17" width="1" height="1" fill="#FFFFFF" />
<rect x="42" y="17" width="1" height="1" fill="#FFFFFF" opacity="0.447059" />
<rect x="43" y="17" width="1" height="1" fill="#FFFFFF" />
<rect x="44" y="17" width="1" height="1" fill="#FFFFFF" />
<rect x="45" y="17" width="1" height="1" fill="#FFFFFF" opacity="0.188235" />
<rect x="2" y="18" width="1" height="1" fill="#FFFFFF" opacity="0.972549" />
<rect x="3" y="18" width="1" height="1" fill="#FFFFFF" />
<rect x="4" y="18" width="1" height="1" fill="#FFFFFF" opacity="0.803922" />
<rect x="10" y="18" width="1" height="1" fill="#FFFFFF" />
<rect x="11" y="18" width="1" height="1" fill="#FFFFFF" />
<rect x="36" y="18" width="1" height="1" fill="#FFFFFF" />
<rect x="37" y="18" width="1" height="1" fill="#FFFFFF" />
<rect x="43" y="18" width="1" height="1" fill="#FFFFFF" opacity="0.737255" />
<rect x="44" y="18" width="1" height="1" fill="#FFFFFF" />
<rect x="45" y="18" width="1" height="1" fill="#FFFFFF" opacity="0.972549" />
<rect x="1" y="19" width="1" height="1" fill="#FFFFFF" opacity="0.788235" />
<rect x="2" y="19" width="1" height="1" fill="#FFFFFF" />
<rect x="3" y="19" width="1" height="1" fill="#FFFFFF" opacity="0.984314" />
<rect x="4" y="19" width="1" height="1" fill="#FFFFFF" opacity="0.015686" />
<rect x="10" y="19" width="1" height="1" fill="#FFFFFF" />
<rect x="11" y="19" width="1" height="1" fill="#FFFFFF" />
<rect x="36" y="19" width="1" height="1" fill="#FFFFFF" />
<rect x="37" y="19" width="1" height="1" fill="#FFFFFF" />
<rect x="43" y="19" width="1" height="1" fill="#FFFFFF" opacity="0.015686" />
<rect x="44" y="19" width="1" height="1" fill="#FFFFFF" opacity="0.976471" />
<rect x="45" y="19" width="1" height="1" fill="#FFFFFF" />
<rect x="46" y="19" width="1" height="1" fill="#FFFFFF" opacity="0.788235" />
<rect x="1" y="20" width="1" height="1" fill="#FFFFFF" opacity="0.168627" />
<rect x="2" y="20" width="1" height="1" fill="#FFFFFF" />
<rect x="3" y="20" width="1" height="1" fill="#FFFFFF" />
<rect x="4" y="20" width="1" height="1" fill="#FFFFFF" opacity="0.317647" />
<rect x="10" y="20" width="1" height="1" fill="#FFFFFF" />
<rect x="11" y="20" width="1" height="1" fill="#FFFFFF" />
<rect x="36" y="20" width="1" height="1" fill="#FFFFFF" />
<rect x="37" y="20" width="1" height="1" fill="#FFFFFF" />
<rect x="43" y="20" width="1" height="1" fill="#FFFFFF" opacity="0.313725" />
<rect x="44" y="20" width="1" height="1" fill="#FFFFFF" />
<rect x="45" y="20" width="1" height="1" fill="#FFFFFF" />
<rect x="46" y="20" width="1" height="1" fill="#FFFFFF" opacity="0.168627" />
<rect x="2" y="21" width="1" height="1" fill="#FFFFFF" opacity="0.533333" />
<rect x="3" y="21" width="1" height="1" fill="#FFFFFF" />
<rect x="4" y="21" width="1" height="1" fill="#FFFFFF" />
<rect x="5" y="21" width="1" height="1" fill="#FFFFFF" opacity="0.090196" />
<rect x="10" y="21" width="1" height="1" fill="#FFFFFF" />
<rect x="11" y="21" width="1" height="1" fill="#FFFFFF" />
<rect x="36" y="21" width="1" height="1" fill="#FFFFFF" />
<rect x="37" y="21" width="1" height="1" fill="#FFFFFF" />
<rect x="42" y="21" width="1" height="1" fill="#FFFFFF" opacity="0.090196" />
<rect x="43" y="21" width="1" height="1" fill="#FFFFFF" />
<rect x="44" y="21" width="1" height="1" fill="#FFFFFF" />
<rect x="45" y="21" width="1" height="1" fill="#FFFFFF" opacity="0.478431" />
<rect x="3" y="22" width="1" height="1" fill="#FFFFFF" opacity="0.898039" />
<rect x="4" y="22" width="1" height="1" fill="#FFFFFF" />
<rect x="5" y="22" width="1" height="1" fill="#FFFFFF" opacity="0.960784" />
<rect x="10" y="22" width="1" height="1" fill="#FFFFFF" />
<rect x="11" y="22" width="1" height="1" fill="#FFFFFF" />
<rect x="36" y="22" width="1" height="1" fill="#FFFFFF" />
<rect x="37" y="22" width="1" height="1" fill="#FFFFFF" />
<rect x="42" y="22" width="1" height="1" fill="#FFFFFF" opacity="0.925490" />
<rect x="43" y="22" width="1" height="1" fill="#FFFFFF" />
<rect x="44" y="22" width="1" height="1" fill="#FFFFFF" opacity="0.898039" />
<rect x="3" y="23" width="1" height="1" fill="#FFFFFF" opacity="0.019608" />
<rect x="4" y="23" width="1" height="1" fill="#FFFFFF" opacity="0.964706" />
<rect x="5" y="23" width="1" height="1" fill="#FFFFFF" />
<rect x="6" y="23" width="1" height="1" fill="#FFFFFF" opacity="0.835294" />
<rect x="10" y="23" width="1" height="1" fill="#FFFFFF" />
<rect x="11" y="23" width="1" height="1" fill="#FFFFFF" />
<rect x="36" y="23" width="1" height="1" fill="#FFFFFF" />
<rect x="37" y="23" width="1" height="1" fill="#FFFFFF" />
<rect x="41" y="23" width="1" height="1" fill="#FFFFFF" opacity="0.831373" />
<rect x="42" y="23" width="1" height="1" fill="#FFFFFF" />
<rect x="43" y="23" width="1" height="1" fill="#FFFFFF" opacity="0.984314" />
<rect x="44" y="23" width="1" height="1" fill="#FFFFFF" opacity="0.019608" />
<rect x="3" y="24" width="1" height="1" fill="#FFFFFF" opacity="0.019608" />
<rect x="4" y="24" width="1" height="1" fill="#FFFFFF" opacity="0.984314" />
<rect x="5" y="24" width="1" height="1" fill="#FFFFFF" />
<rect x="6" y="24" width="1" height="1" fill="#FFFFFF" opacity="0.752941" />
<rect x="10" y="24" width="1" height="1" fill="#FFFFFF" />
<rect x="11" y="24" width="1" height="1" fill="#FFFFFF" />
<rect x="36" y="24" width="1" height="1" fill="#FFFFFF" />
<rect x="37" y="24" width="1" height="1" fill="#FFFFFF" />
<rect x="41" y="24" width="1" height="1" fill="#FFFFFF" opacity="0.752941" />
<rect x="42" y="24" width="1" height="1" fill="#FFFFFF" />
<rect x="43" y="24" width="1" height="1" fill="#FFFFFF" opacity="0.984314" />
<rect x="44" y="24" width="1" height="1" fill="#FFFFFF" opacity="0.007843" />
<rect x="3" y="25" width="1" height="1" fill="#FFFFFF" opacity="0.898039" />
<rect x="4" y="25" width="1" height="1" fill="#FFFFFF" />
<rect x="5" y="25" width="1" height="1" fill="#FFFFFF" opacity="0.960784" />
<rect x="10" y="25" width="1" height="1" fill="#FFFFFF" />
<rect x="11" y="25" width="1" height="1" fill="#FFFFFF" />
<rect x="36" y="25" width="1" height="1" fill="#FFFFFF" />
<rect x="37" y="25" width="1" height="1" fill="#FFFFFF" />
<rect x="42" y="25" width="1" height="1" fill="#FFFFFF" opacity="0.960784" />
<rect x="43" y="25" width="1" height="1" fill="#FFFFFF" />
<rect x="44" y="25" width="1" height="1" fill="#FFFFFF" opacity="0.796078" />
<rect x="2" y="26" width="1" height="1" fill="#FFFFFF" opacity="0.572549" />
<rect x="3" y="26" width="1" height="1" fill="#FFFFFF" />
<rect x="4" y="26" width="1" height="1" fill="#FFFFFF" />
<rect x="5" y="26" width="1" height="1" fill="#FFFFFF" opacity="0.090196" />
<rect x="10" y="26" width="1" height="1" fill="#FFFFFF" />
<rect x="11" y="26" width="1" height="1" fill="#FFFFFF" />
<rect x="36" y="26" width="1" height="1" fill="#FFFFFF" />
<rect x="37" y="26" width="1" height="1" fill="#FFFFFF" />
<rect x="42" y="26" width="1" height="1" fill="#FFFFFF" opacity="0.180392" />
<rect x="43" y="26" width="1" height="1" fill="#FFFFFF" />
<rect x="44" y="26" width="1" height="1" fill="#FFFFFF" />
<rect x="45" y="26" width="1" height="1" fill="#FFFFFF" opacity="0.494118" />
<rect x="1" y="27" width="1" height="1" fill="#FFFFFF" opacity="0.168627" />
<rect x="2" y="27" width="1" height="1" fill="#FFFFFF" />
<rect x="3" y="27" width="1" height="1" fill="#FFFFFF" />
<rect x="4" y="27" width="1" height="1" fill="#FFFFFF" opacity="0.294118" />
<rect x="10" y="27" width="1" height="1" fill="#FFFFFF" />
<rect x="11" y="27" width="1" height="1" fill="#FFFFFF" />
<rect x="36" y="27" width="1" height="1" fill="#FFFFFF" />
<rect x="37" y="27" width="1" height="1" fill="#FFFFFF" />
<rect x="43" y="27" width="1" height="1" fill="#FFFFFF" opacity="0.294118" />
<rect x="44" y="27" width="1" height="1" fill="#FFFFFF" />
<rect x="45" y="27" width="1" height="1" fill="#FFFFFF" />
<rect x="46" y="27" width="1" height="1" fill="#FFFFFF" opacity="0.082353" />
<rect x="1" y="28" width="1" height="1" fill="#FFFFFF" opacity="0.729412" />
<rect x="2" y="28" width="1" height="1" fill="#FFFFFF" />
<rect x="3" y="28" width="1" height="1" fill="#FFFFFF" opacity="0.984314" />
<rect x="4" y="28" width="1" height="1" fill="#FFFFFF" opacity="0.015686" />
<rect x="10" y="28" width="1" height="1" fill="#FFFFFF" />
<rect x="11" y="28" width="1" height="1" fill="#FFFFFF" />
<rect x="36" y="28" width="1" height="1" fill="#FFFFFF" />
<rect x="37" y="28" width="1" height="1" fill="#FFFFFF" />
<rect x="43" y="28" width="1" height="1" fill="#FFFFFF" opacity="0.015686" />
<rect x="44" y="28" width="1" height="1" fill="#FFFFFF" opacity="0.984314" />
<rect x="45" y="28" width="1" height="1" fill="#FFFFFF" />
<rect x="46" y="28" width="1" height="1" fill="#FFFFFF" opacity="0.800000" />
<rect x="2" y="29" width="1" height="1" fill="#FFFFFF" opacity="0.972549" />
<rect x="3" y="29" width="1" height="1" fill="#FFFFFF" />
<rect x="4" y="29" width="1" height="1" fill="#FFFFFF" opacity="0.737255" />
<rect x="10" y="29" width="1" height="1" fill="#FFFFFF" />
<rect x="11" y="29" width="1" height="1" fill="#FFFFFF" />
<rect x="36" y="29" width="1" height="1" fill="#FFFFFF" />
<rect x="37" y="29" width="1" height="1" fill="#FFFFFF" />
<rect x="43" y="29" width="1" height="1" fill="#FFFFFF" opacity="0.737255" />
<rect x="44" y="29" width="1" height="1" fill="#FFFFFF" />
<rect x="45" y="29" width="1" height="1" fill="#FFFFFF" opacity="0.972549" />
<rect x="2" y="30" width="1" height="1" fill="#FFFFFF" opacity="0.188235" />
<rect x="3" y="30" width="1" height="1" fill="#FFFFFF" />
<rect x="4" y="30" width="1" height="1" fill="#FFFFFF" />
<rect x="5" y="30" width="1" height="1" fill="#FFFFFF" opacity="0.505882" />
<rect x="10" y="30" width="1" height="1" fill="#FFFFFF" />
<rect x="11" y="30" width="1" height="1" fill="#FFFFFF" />
<rect x="36" y="30" width="1" height="1" fill="#FFFFFF" />
<rect x="37" y="30" width="1" height="1" fill="#FFFFFF" />
<rect x="42" y="30" width="1" height="1" fill="#FFFFFF" opacity="0.388235" />
<rect x="43" y="30" width="1" height="1" fill="#FFFFFF" />
<rect x="44" y="30" width="1" height="1" fill="#FFFFFF" />
<rect x="45" y="30" width="1" height="1" fill="#FFFFFF" opacity="0.188235" />
<rect x="3" y="31" width="1" height="1" fill="#FFFFFF" opacity="0.364706" />
<rect x="4" y="31" width="1" height="1" fill="#FFFFFF" />
<rect x="5" y="31" width="1" height="1" fill="#FFFFFF" />
<rect x="6" y="31" width="1" height="1" fill="#FFFFFF" opacity="0.074510" />
<rect x="10" y="31" width="1" height="1" fill="#FFFFFF" />
<rect x="11" y="31" width="1" height="1" fill="#FFFFFF" />
<rect x="36" y="31" width="1" height="1" fill="#FFFFFF" />
<rect x="37" y="31" width="1" height="1" fill="#FFFFFF" />
<rect x="41" y="31" width="1" height="1" fill="#FFFFFF" opacity="0.074510" />
<rect x="42" y="31" width="1" height="1" fill="#FFFFFF" />
<rect x="43" y="31" width="1" height="1" fill="#FFFFFF" />
<rect x="44" y="31" width="1" height="1" fill="#FFFFFF" opacity="0.458824" />
<rect x="4" y="32" width="1" height="1" fill="#FFFFFF" opacity="0.878431" />
<rect x="5" y="32" width="1" height="1" fill="#FFFFFF" />
<rect x="6" y="32" width="1" height="1" fill="#FFFFFF" opacity="0.929412" />
<rect x="10" y="32" width="1" height="1" fill="#FFFFFF" />
<rect x="11" y="32" width="1" height="1" fill="#FFFFFF" />
<rect x="36" y="32" width="1" height="1" fill="#FFFFFF" />
<rect x="37" y="32" width="1" height="1" fill="#FFFFFF" />
<rect x="41" y="32" width="1" height="1" fill="#FFFFFF" opacity="0.929412" />
<rect x="42" y="32" width="1" height="1" fill="#FFFFFF" />
<rect x="43" y="32" width="1" height="1" fill="#FFFFFF" opacity="0.894118" />
<rect x="3" y="33" width="1" height="1" fill="#FFFFFF" opacity="0.156863" />
<rect x="4" y="33" width="1" height="1" fill="#FFFFFF" />
<rect x="5" y="33" width="1" height="1" fill="#FFFFFF" />
<rect x="6" y="33" width="1" height="1" fill="#FFFFFF" opacity="0.321569" />
<rect x="10" y="33" width="1" height="1" fill="#FFFFFF" />
<rect x="11" y="33" width="1" height="1" fill="#FFFFFF" />
<rect x="36" y="33" width="1" height="1" fill="#FFFFFF" />
<rect x="37" y="33" width="1" height="1" fill="#FFFFFF" />
<rect x="41" y="33" width="1" height="1" fill="#FFFFFF" opacity="0.321569" />
<rect x="42" y="33" width="1" height="1" fill="#FFFFFF" />
<rect x="43" y="33" width="1" height="1" fill="#FFFFFF" />
<rect x="44" y="33" width="1" height="1" fill="#FFFFFF" opacity="0.239216" />
<rect x="2" y="34" width="1" height="1" fill="#FFFFFF" opacity="0.043137" />
<rect x="3" y="34" width="1" height="1" fill="#FFFFFF" />
<rect x="4" y="34" width="1" height="1" fill="#FFFFFF" />
<rect x="5" y="34" width="1" height="1" fill="#FFFFFF" opacity="0.654902" />
<rect x="10" y="34" width="1" height="1" fill="#FFFFFF" />
<rect x="11" y="34" width="1" height="1" fill="#FFFFFF" />
<rect x="36" y="34" width="1" height="1" fill="#FFFFFF" />
<rect x="37" y="34" width="1" height="1" fill="#FFFFFF" />
<rect x="42" y="34" width="1" height="1" fill="#FFFFFF" opacity="0.658824" />
<rect x="43" y="34" width="1" height="1" fill="#FFFFFF" />
<rect x="44" y="34" width="1" height="1" fill="#FFFFFF" />
<rect x="45" y="34" width="1" height="1" fill="#FFFFFF" opacity="0.043137" />
<rect x="2" y="35" width="1" height="1" fill="#FFFFFF" opacity="0.870588" />
<rect x="3" y="35" width="1" height="1" fill="#FFFFFF" />
<rect x="4" y="35" width="1" height="1" fill="#FFFFFF" opacity="0.941176" />
<rect x="10" y="35" width="1" height="1" fill="#FFFFFF" />
<rect x="11" y="35" width="1" height="1" fill="#FFFFFF" />
<rect x="36" y="35" width="1" height="1" fill="#FFFFFF" />
<rect x="37" y="35" width="1" height="1" fill="#FFFFFF" />
<rect x="43" y="35" width="1" height="1" fill="#FFFFFF" opacity="0.941176" />
<rect x="44" y="35" width="1" height="1" fill="#FFFFFF" />
<rect x="45" y="35" width="1" height="1" fill="#FFFFFF" opacity="0.870588" />
<rect x="1" y="36" width="1" height="1" fill="#FFFFFF" opacity="0.062745" />
<rect x="2" y="36" width="1" height="1" fill="#FFFFFF" opacity="0.937255" />
<rect x="3" y="36" width="1" height="1" fill="#FFFFFF" opacity="0.992157" />
<rect x="4" y="36" width="1" height="1" fill="#FFFFFF" opacity="0.066667" />
<rect x="10" y="36" width="1" height="1" fill="#FFFFFF" />
<rect x="11" y="36" width="1" height="1" fill="#FFFFFF" />
<rect x="22" y="36" width="1" height="1" fill="#FFFFFF" opacity="0.490196" />
<rect x="23" y="36" width="1" height="1" fill="#FFFFFF" />
<rect x="24" y="36" width="1" height="1" fill="#FFFFFF" />
<rect x="25" y="36" width="1" height="1" fill="#FFFFFF" opacity="0.490196" />
<rect x="36" y="36" width="1" height="1" fill="#FFFFFF" />
<rect x="37" y="36" width="1" height="1" fill="#FFFFFF" />
<rect x="43" y="36" width="1" height="1" fill="#FFFFFF" opacity="0.066667" />
<rect x="44" y="36" width="1" height="1" fill="#FFFFFF" opacity="0.996078" />
<rect x="45" y="36" width="1" height="1" fill="#FFFFFF" opacity="0.956863" />
<rect x="46" y="36" width="1" height="1" fill="#FFFFFF" opacity="0.062745" />
<rect x="2" y="37" width="1" height="1" fill="#FFFFFF" opacity="0.003922" />
<rect x="3" y="37" width="1" height="1" fill="#FFFFFF" opacity="0.235294" />
<rect x="10" y="37" width="1" height="1" fill="#FFFFFF" />
<rect x="11" y="37" width="1" height="1" fill="#FFFFFF" />
<rect x="22" y="37" width="1" height="1" fill="#FFFFFF" />
<rect x="23" y="37" width="1" height="1" fill="#FFFFFF" />
<rect x="24" y="37" width="1" height="1" fill="#FFFFFF" />
<rect x="25" y="37" width="1" height="1" fill="#FFFFFF" />
<rect x="36" y="37" width="1" height="1" fill="#FFFFFF" />
<rect x="37" y="37" width="1" height="1" fill="#FFFFFF" />
<rect x="44" y="37" width="1" height="1" fill="#FFFFFF" opacity="0.235294" />
<rect x="10" y="38" width="1" height="1" fill="#FFFFFF" />
<rect x="11" y="38" width="1" height="1" fill="#FFFFFF" />
<rect x="22" y="38" width="1" height="1" fill="#FFFFFF" />
<rect x="23" y="38" width="1" height="1" fill="#FFFFFF" />
<rect x="24" y="38" width="1" height="1" fill="#FFFFFF" />
<rect x="25" y="38" width="1" height="1" fill="#FFFFFF" />
<rect x="36" y="38" width="1" height="1" fill="#FFFFFF" />
<rect x="37" y="38" width="1" height="1" fill="#FFFFFF" />
<rect x="10" y="39" width="1" height="1" fill="#FFFFFF" />
<rect x="11" y="39" width="1" height="1" fill="#FFFFFF" />
<rect x="22" y="39" width="1" height="1" fill="#FFFFFF" opacity="0.509804" />
<rect x="23" y="39" width="1" height="1" fill="#FFFFFF" />
<rect x="24" y="39" width="1" height="1" fill="#FFFFFF" />
<rect x="25" y="39" width="1" height="1" fill="#FFFFFF" opacity="0.486275" />
<rect x="36" y="39" width="1" height="1" fill="#FFFFFF" />
<rect x="37" y="39" width="1" height="1" fill="#FFFFFF" />
<rect x="10" y="40" width="1" height="1" fill="#FFFFFF" />
<rect x="11" y="40" width="1" height="1" fill="#FFFFFF" />
<rect x="36" y="40" width="1" height="1" fill="#FFFFFF" />
<rect x="37" y="40" width="1" height="1" fill="#FFFFFF" />
<rect x="10" y="41" width="1" height="1" fill="#FFFFFF" />
<rect x="11" y="41" width="1" height="1" fill="#FFFFFF" />
<rect x="36" y="41" width="1" height="1" fill="#FFFFFF" />
<rect x="37" y="41" width="1" height="1" fill="#FFFFFF" />
<rect x="10" y="42" width="1" height="1" fill="#FFFFFF" />
<rect x="11" y="42" width="1" height="1" fill="#FFFFFF" />
<rect x="36" y="42" width="1" height="1" fill="#FFFFFF" />
<rect x="37" y="42" width="1" height="1" fill="#FFFFFF" />
<rect x="10" y="43" width="1" height="1" fill="#FFFFFF" />
<rect x="11" y="43" width="1" height="1" fill="#FFFFFF" />
<rect x="12" y="43" width="1" height="1" fill="#FFFFFF" opacity="0.694118" />
<rect x="13" y="43" width="1" height="1" fill="#FFFFFF" opacity="0.694118" />
<rect x="14" y="43" width="1" height="1" fill="#FFFFFF" opacity="0.694118" />
<rect x="15" y="43" width="1" height="1" fill="#FFFFFF" opacity="0.694118" />
<rect x="16" y="43" width="1" height="1" fill="#FFFFFF" opacity="0.694118" />
<rect x="17" y="43" width="1" height="1" fill="#FFFFFF" opacity="0.694118" />
<rect x="18" y="43" width="1" height="1" fill="#FFFFFF" opacity="0.694118" />
<rect x="19" y="43" width="1" height="1" fill="#FFFFFF" opacity="0.694118" />
<rect x="20" y="43" width="1" height="1" fill="#FFFFFF" opacity="0.694118" />
<rect x="21" y="43" width="1" height="1" fill="#FFFFFF" opacity="0.694118" />
<rect x="22" y="43" width="1" height="1" fill="#FFFFFF" opacity="0.694118" />
<rect x="23" y="43" width="1" height="1" fill="#FFFFFF" opacity="0.694118" />
<rect x="24" y="43" width="1" height="1" fill="#FFFFFF" opacity="0.694118" />
<rect x="25" y="43" width="1" height="1" fill="#FFFFFF" opacity="0.694118" />
<rect x="26" y="43" width="1" height="1" fill="#FFFFFF" opacity="0.694118" />
<rect x="27" y="43" width="1" height="1" fill="#FFFFFF" opacity="0.694118" />
<rect x="28" y="43" width="1" height="1" fill="#FFFFFF" opacity="0.694118" />
<rect x="29" y="43" width="1" height="1" fill="#FFFFFF" opacity="0.694118" />
<rect x="30" y="43" width="1" height="1" fill="#FFFFFF" opacity="0.694118" />
<rect x="31" y="43" width="1" height="1" fill="#FFFFFF" opacity="0.694118" />
<rect x="32" y="43" width="1" height="1" fill="#FFFFFF" opacity="0.694118" />
<rect x="33" y="43" width="1" height="1" fill="#FFFFFF" opacity="0.694118" />
<rect x="34" y="43" width="1" height="1" fill="#FFFFFF" opacity="0.694118" />
<rect x="35" y="43" width="1" height="1" fill="#FFFFFF" opacity="0.694118" />
<rect x="36" y="43" width="1" height="1" fill="#FFFFFF" />
<rect x="37" y="43" width="1" height="1" fill="#FFFFFF" />
<rect x="10" y="44" width="1" height="1" fill="#FFFFFF" />
<rect x="11" y="44" width="1" height="1" fill="#FFFFFF" />
<rect x="12" y="44" width="1" height="1" fill="#FFFFFF" />
<rect x="13" y="44" width="1" height="1" fill="#FFFFFF" />
<rect x="14" y="44" width="1" height="1" fill="#FFFFFF" />
<rect x="15" y="44" width="1" height="1" fill="#FFFFFF" />
<rect x="16" y="44" width="1" height="1" fill="#FFFFFF" />
<rect x="17" y="44" width="1" height="1" fill="#FFFFFF" />
<rect x="18" y="44" width="1" height="1" fill="#FFFFFF" />
<rect x="19" y="44" width="1" height="1" fill="#FFFFFF" />
<rect x="20" y="44" width="1" height="1" fill="#FFFFFF" />
<rect x="21" y="44" width="1" height="1" fill="#FFFFFF" />
<rect x="22" y="44" width="1" height="1" fill="#FFFFFF" />
<rect x="23" y="44" width="1" height="1" fill="#FFFFFF" />
<rect x="24" y="44" width="1" height="1" fill="#FFFFFF" />
<rect x="25" y="44" width="1" height="1" fill="#FFFFFF" />
<rect x="26" y="44" width="1" height="1" fill="#FFFFFF" />
<rect x="27" y="44" width="1" height="1" fill="#FFFFFF" />
<rect x="28" y="44" width="1" height="1" fill="#FFFFFF" />
<rect x="29" y="44" width="1" height="1" fill="#FFFFFF" />
<rect x="30" y="44" width="1" height="1" fill="#FFFFFF" />
<rect x="31" y="44" width="1" height="1" fill="#FFFFFF" />
<rect x="32" y="44" width="1" height="1" fill="#FFFFFF" />
<rect x="33" y="44" width="1" height="1" fill="#FFFFFF" />
<rect x="34" y="44" width="1" height="1" fill="#FFFFFF" />
<rect x="35" y="44" width="1" height="1" fill="#FFFFFF" />
<rect x="36" y="44" width="1" height="1" fill="#FFFFFF" />
<rect x="37" y="44" width="1" height="1" fill="#FFFFFF" />
<rect x="10" y="45" width="1" height="1" fill="#FFFFFF" opacity="0.478431" />
<rect x="11" y="45" width="1" height="1" fill="#FFFFFF" opacity="0.478431" />
<rect x="12" y="45" width="1" height="1" fill="#FFFFFF" opacity="0.478431" />
<rect x="13" y="45" width="1" height="1" fill="#FFFFFF" opacity="0.478431" />
<rect x="14" y="45" width="1" height="1" fill="#FFFFFF" opacity="0.478431" />
<rect x="15" y="45" width="1" height="1" fill="#FFFFFF" opacity="0.478431" />
<rect x="16" y="45" width="1" height="1" fill="#FFFFFF" opacity="0.478431" />
<rect x="17" y="45" width="1" height="1" fill="#FFFFFF" opacity="0.478431" />
<rect x="18" y="45" width="1" height="1" fill="#FFFFFF" opacity="0.478431" />
<rect x="19" y="45" width="1" height="1" fill="#FFFFFF" opacity="0.478431" />
<rect x="20" y="45" width="1" height="1" fill="#FFFFFF" opacity="0.478431" />
<rect x="21" y="45" width="1" height="1" fill="#FFFFFF" opacity="0.478431" />
<rect x="22" y="45" width="1" height="1" fill="#FFFFFF" opacity="0.478431" />
<rect x="23" y="45" width="1" height="1" fill="#FFFFFF" opacity="0.478431" />
<rect x="24" y="45" width="1" height="1" fill="#FFFFFF" opacity="0.478431" />
<rect x="25" y="45" width="1" height="1" fill="#FFFFFF" opacity="0.478431" />
<rect x="26" y="45" width="1" height="1" fill="#FFFFFF" opacity="0.478431" />
<rect x="27" y="45" width="1" height="1" fill="#FFFFFF" opacity="0.478431" />
<rect x="28" y="45" width="1" height="1" fill="#FFFFFF" opacity="0.478431" />
<rect x="29" y="45" width="1" height="1" fill="#FFFFFF" opacity="0.478431" />
<rect x="30" y="45" width="1" height="1" fill="#FFFFFF" opacity="0.478431" />
<rect x="31" y="45" width="1" height="1" fill="#FFFFFF" opacity="0.478431" />
<rect x="32" y="45" width="1" height="1" fill="#FFFFFF" opacity="0.478431" />
<rect x="33" y="45" width="1" height="1" fill="#FFFFFF" opacity="0.478431" />
<rect x="34" y="45" width="1" height="1" fill="#FFFFFF" opacity="0.478431" />
<rect x="35" y="45" width="1" height="1" fill="#FFFFFF" opacity="0.478431" />
<rect x="36" y="45" width="1" height="1" fill="#FFFFFF" opacity="0.478431" />
<rect x="37" y="45" width="1" height="1" fill="#FFFFFF" opacity="0.478431" />
</svg>