<?xml version="1.0" standalone="no"?><!DOCTYPE svg PUBLIC "-//W3C//DTD SVG 1.1//EN" "http://www.w3.org/Graphics/SVG/1.1/DTD/svg11.dtd"><svg t="1702892393289" class="icon" viewBox="0 0 1024 1024" version="1.1" xmlns="http://www.w3.org/2000/svg" p-id="2307" width="48" height="48" xmlns:xlink="http://www.w3.org/1999/xlink"><path d="M509.44 479.936a54.4 54.4 0 0 1 0 76.928L193.92 872.32a48 48 0 0 1-67.84-67.84L412.16 518.4 126.08 232.32a48 48 0 0 1 67.84-67.84l315.52 315.456z m384 0a54.4 54.4 0 0 1 0 76.928L577.92 872.32a48 48 0 0 1-67.84-67.84l286.08-286.08-286.08-286.08a48 48 0 0 1 67.84-67.84l315.52 315.456z" p-id="2308" fill="#ffffff"></path></svg>